<?xml version="1.0" encoding="utf-8"?>
<!-- Generator: Adobe Illustrator 15.0.0, SVG Export Plug-In . SVG Version: 6.00 Build 0)  -->
<!DOCTYPE svg PUBLIC "-//W3C//DTD SVG 1.1//EN" "http://www.w3.org/Graphics/SVG/1.1/DTD/svg11.dtd">
<svg version="1.1" id="Layer_1" xmlns="http://www.w3.org/2000/svg" xmlns:xlink="http://www.w3.org/1999/xlink" x="0px" y="0px"
	 width="652.381px" height="1048.254px" viewBox="0 0 652.381 1048.254" enable-background="new 0 0 652.381 1048.254"
	 xml:space="preserve">
<g>
	<rect x="202.381" y="352" stroke="#000000" stroke-miterlimit="10" width="50" height="50"/>
	<rect x="252.381" y="302" stroke="#000000" stroke-miterlimit="10" width="50" height="50"/>
	<rect x="252.381" y="352" stroke="#000000" stroke-miterlimit="10" width="50" height="50"/>
	<rect x="252.381" y="252" stroke="#000000" stroke-miterlimit="10" width="50" height="50"/>
	<rect x="2.381" y="552" stroke="#000000" stroke-miterlimit="10" width="50" height="50"/>
	<rect x="52.381" y="502" stroke="#000000" stroke-miterlimit="10" width="50" height="50"/>
	<rect x="52.381" y="452" stroke="#000000" stroke-miterlimit="10" width="50" height="50"/>
	<rect x="52.381" y="402" stroke="#000000" stroke-miterlimit="10" width="50" height="50"/>
	<rect x="2.381" y="352" stroke="#000000" stroke-miterlimit="10" width="50" height="50"/>
	<rect x="53.381" y="50" fill="#FFFFFF" width="50" height="50"/>
	<rect x="53.381" y="100" fill="#FFFFFF" width="50" height="50"/>
	<rect x="53.381" y="150" fill="#FFFFFF" width="50" height="50"/>
	<rect x="53.381" y="200" fill="#FFFFFF" width="50" height="50"/>
	<rect x="53.381" y="250" fill="#FFFFFF" width="50" height="50"/>
	<rect x="103.381" y="250" fill="#FFFFFF" width="50" height="50"/>
	<rect x="103.381" y="300" fill="#FFFFFF" width="50" height="50"/>
	<rect x="53.381" y="300" fill="#FFFFFF" width="50" height="50"/>
	<rect x="53.381" y="350" fill="#FFFFFF" width="50" height="50"/>
	<rect x="103.381" y="350" fill="#FFFFFF" width="50" height="50"/>
	<rect x="103.381" y="400" fill="#FFFFFF" width="50" height="50"/>
	<rect x="153.381" y="400" fill="#FFFFFF" width="50" height="50"/>
	<rect x="203.381" y="400" fill="#FFFFFF" width="50" height="50"/>
	<rect x="253.381" y="400" fill="#FFFFFF" width="50" height="50"/>
	<rect x="303.381" y="400" fill="#FFFFFF" width="50" height="50"/>
	<rect x="353.381" y="400" fill="#FFFFFF" width="50" height="50"/>
	<rect x="103.381" y="450" fill="#FFFFFF" width="50" height="50"/>
	<rect x="153.381" y="450" fill="#FFFFFF" width="50" height="50"/>
	<rect x="203.381" y="450" fill="#FFFFFF" width="50" height="50"/>
	<rect x="253.381" y="450" fill="#FFFFFF" width="50" height="50"/>
	<rect x="303.381" y="450" fill="#FFFFFF" width="50" height="50"/>
	<rect x="353.381" y="450" fill="#FFFFFF" width="50" height="50"/>
	<rect x="103.381" y="500" fill="#FFFFFF" width="50" height="50"/>
	<rect x="153.381" y="500" fill="#FFFFFF" width="50" height="50"/>
	<rect x="203.381" y="500" fill="#FFFFFF" width="50" height="50"/>
	<rect x="253.381" y="500" fill="#FFFFFF" width="50" height="50"/>
	<rect x="303.381" y="500" fill="#FFFFFF" width="50" height="50"/>
	<rect x="353.381" y="500" fill="#FFFFFF" width="50" height="50"/>
	<rect x="303.381" y="550" fill="#FFFFFF" width="50" height="50"/>
	<rect x="353.381" y="550" fill="#FFFFFF" width="50" height="50"/>
	<rect x="403.381" y="550" fill="#FFFFFF" width="50" height="50"/>
	<rect x="453.381" y="550" fill="#FFFFFF" width="50" height="50"/>
	<rect x="503.381" y="550" fill="#FFFFFF" width="50" height="50"/>
	<rect x="303.381" y="600" fill="#FFFFFF" width="50" height="50"/>
	<rect x="353.381" y="600" fill="#FFFFFF" width="50" height="50"/>
	<rect x="403.381" y="600" fill="#FFFFFF" width="50" height="50"/>
	<rect x="453.381" y="600" fill="#FFFFFF" width="50" height="50"/>
	<rect x="503.381" y="600" fill="#FFFFFF" width="50" height="50"/>
	<rect x="303.381" y="650" fill="#FFFFFF" width="50" height="50"/>
	<rect x="353.381" y="650" fill="#FFFFFF" width="50" height="50"/>
	<rect x="403.381" y="650" fill="#FFFFFF" width="50" height="50"/>
	<rect x="453.381" y="650" fill="#FFFFFF" width="50" height="50"/>
	<rect x="503.381" y="650" fill="#FFFFFF" width="50" height="50"/>
	<rect x="303.381" y="700" fill="#FFFFFF" width="50" height="50"/>
	<rect x="353.381" y="700" fill="#FFFFFF" width="50" height="50"/>
	<rect x="403.381" y="700" fill="#FFFFFF" width="50" height="50"/>
	<rect x="453.381" y="700" fill="#FFFFFF" width="50" height="50"/>
	<rect x="503.381" y="700" fill="#FFFFFF" width="50" height="50"/>
	<rect x="303.381" y="750" fill="#FFFFFF" width="50" height="50"/>
	<rect x="453.381" y="400" fill="#FFFFFF" width="50" height="50"/>
	<rect x="453.381" y="450" fill="#FFFFFF" width="50" height="50"/>
	<rect x="553.381" y="400" fill="#FFFFFF" width="50" height="50"/>
	<rect x="553.381" y="450" fill="#FFFFFF" width="50" height="50"/>
	<rect x="353.381" y="750" fill="#FFFFFF" width="50" height="50"/>
	<rect x="403.381" y="750" fill="#FFFFFF" width="50" height="50"/>
	<rect x="453.381" y="750" fill="#FFFFFF" width="50" height="50"/>
	<rect x="103.381" y="750" fill="#FFFFFF" width="50" height="50"/>
	<rect x="153.381" y="750" fill="#FFFFFF" width="50" height="50"/>
	<rect x="203.381" y="750" fill="#FFFFFF" width="50" height="50"/>
	<rect x="253.381" y="750" fill="#FFFFFF" width="50" height="50"/>
	<rect x="303.381" y="800" fill="#FFFFFF" width="50" height="50"/>
	<rect x="353.381" y="800" fill="#FFFFFF" width="50" height="50"/>
	<rect x="403.381" y="800" fill="#FFFFFF" width="50" height="50"/>
	<rect x="453.381" y="800" fill="#FFFFFF" width="50" height="50"/>
	<rect x="103.381" y="800" fill="#FFFFFF" width="50" height="50"/>
	<rect x="153.381" y="800" fill="#FFFFFF" width="50" height="50"/>
	<rect x="203.381" y="800" fill="#FFFFFF" width="50" height="50"/>
	<rect x="253.381" y="800" fill="#FFFFFF" width="50" height="50"/>
	<rect x="303.381" y="850" fill="#FFFFFF" width="50" height="50"/>
	<rect x="353.381" y="850" fill="#FFFFFF" width="50" height="50"/>
	<rect x="403.381" y="850" fill="#FFFFFF" width="50" height="50"/>
	<rect x="453.381" y="850" fill="#FFFFFF" width="50" height="50"/>
	<rect x="153.381" y="850" fill="#FFFFFF" width="50" height="50"/>
	<rect x="203.381" y="850" fill="#FFFFFF" width="50" height="50"/>
	<rect x="253.381" y="850" fill="#FFFFFF" width="50" height="50"/>
	<rect x="303.381" y="900" fill="#FFFFFF" width="50" height="50"/>
	<rect x="353.381" y="900" fill="#FFFFFF" width="50" height="50"/>
	<rect x="403.381" y="900" fill="#FFFFFF" width="50" height="50"/>
	<rect x="453.381" y="900" fill="#FFFFFF" width="50" height="50"/>
	<rect x="203.381" y="900" fill="#FFFFFF" width="50" height="50"/>
	<rect x="253.381" y="900" fill="#FFFFFF" width="50" height="50"/>
	<rect x="303.381" y="950" fill="#FFFFFF" width="50" height="50"/>
	<rect x="353.381" y="950" fill="#FFFFFF" width="50" height="50"/>
	<rect x="403.381" y="950" fill="#FFFFFF" width="50" height="50"/>
	<rect x="453.381" y="950" fill="#FFFFFF" width="50" height="50"/>
	<rect x="203.381" y="950" fill="#FFFFFF" width="50" height="50"/>
	<rect x="253.381" y="950" fill="#FFFFFF" width="50" height="50"/>
	<rect x="303.381" y="1000" fill="#FFFFFF" width="50" height="50"/>
	<rect x="353.381" y="1000" fill="#FFFFFF" width="50" height="50"/>
	<rect x="403.381" y="1000" fill="#FFFFFF" width="50" height="50"/>
	<rect x="453.381" y="1000" fill="#FFFFFF" width="50" height="50"/>
	<rect x="203.381" y="1000" fill="#FFFFFF" width="50" height="50"/>
	<rect x="253.381" y="1000" fill="#FFFFFF" width="50" height="50"/>
	<rect x="503.381" y="750" fill="#FFFFFF" width="50" height="50"/>
	<rect x="53.381" y="700" fill="#FFFFFF" width="50" height="50"/>
	<rect x="103.381" y="700" fill="#FFFFFF" width="50" height="50"/>
	<rect x="153.381" y="700" fill="#FFFFFF" width="50" height="50"/>
	<rect x="53.381" y="650" fill="#FFFFFF" width="50" height="50"/>
	<rect x="103.381" y="650" fill="#FFFFFF" width="50" height="50"/>
	<rect x="153.381" y="650" fill="#FFFFFF" width="50" height="50"/>
	<rect x="53.381" y="600" fill="#FFFFFF" width="50" height="50"/>
	<rect x="103.381" y="600" fill="#FFFFFF" width="50" height="50"/>
	<rect x="153.381" y="600" fill="#FFFFFF" width="50" height="50"/>
	<rect x="203.381" y="600" fill="#FFFFFF" width="50" height="50"/>
	<rect x="203.381" y="700" fill="#FFFFFF" width="50" height="50"/>
	<rect x="253.381" y="700" fill="#FFFFFF" width="50" height="50"/>
	<rect x="303.381" y="250" fill="#FFFFFF" width="50" height="50"/>
	<rect x="353.381" y="250" fill="#FFFFFF" width="50" height="50"/>
	<rect x="303.381" y="200" fill="#FFFFFF" width="50" height="50"/>
	<rect x="353.381" y="200" fill="#FFFFFF" width="50" height="50"/>
	<rect x="353.381" y="300" fill="#FFFFFF" width="50" height="50"/>
	<rect x="353.381" y="100" fill="#FFFFFF" width="50" height="50"/>
	<rect x="353.381" y="50" fill="#FFFFFF" width="50" height="50"/>
	<rect x="353.381" y="150" fill="#FFFFFF" width="50" height="50"/>
	<rect x="303.381" y="300" fill="#FFFFFF" width="50" height="50"/>
	<rect x="303.381" y="350" fill="#FFFFFF" width="50" height="50"/>
	<rect x="353.381" y="350" fill="#FFFFFF" width="50" height="50"/>
	<rect x="2.381" y="252" stroke="#000000" stroke-miterlimit="10" width="50" height="50"/>
	<rect x="2.381" y="302" stroke="#000000" stroke-miterlimit="10" width="50" height="50"/>
	<rect x="2.381" y="152" stroke="#000000" stroke-miterlimit="10" width="50" height="50"/>
	<rect x="2.381" y="102" stroke="#000000" stroke-miterlimit="10" width="50" height="50"/>
	<rect x="2.381" y="52" stroke="#000000" stroke-miterlimit="10" width="50" height="50"/>
	<rect x="52.381" y="2" stroke="#000000" stroke-miterlimit="10" width="50" height="50"/>
	<rect x="102.381" y="52" stroke="#000000" stroke-miterlimit="10" width="50" height="50"/>
	<rect x="102.381" y="102" stroke="#000000" stroke-miterlimit="10" width="50" height="50"/>
	<rect x="102.381" y="152" stroke="#000000" stroke-miterlimit="10" width="50" height="50"/>
	<rect x="102.381" y="202" stroke="#000000" stroke-miterlimit="10" width="50" height="50"/>
	<rect x="152.381" y="252" stroke="#000000" stroke-miterlimit="10" width="50" height="50"/>
	<rect x="152.381" y="352" stroke="#000000" stroke-miterlimit="10" width="50" height="50"/>
	<rect x="152.381" y="302" stroke="#000000" stroke-miterlimit="10" width="50" height="50"/>
	<rect x="502.381" y="402" stroke="#000000" stroke-miterlimit="10" width="50" height="50"/>
	<rect x="502.381" y="352" stroke="#000000" stroke-miterlimit="10" width="50" height="50"/>
	<rect x="102.381" y="552" stroke="#000000" stroke-miterlimit="10" width="50" height="50"/>
	<rect x="152.381" y="552" stroke="#000000" stroke-miterlimit="10" width="50" height="50"/>
	<rect x="202.381" y="552" stroke="#000000" stroke-miterlimit="10" width="50" height="50"/>
	<rect x="252.381" y="552" stroke="#000000" stroke-miterlimit="10" width="50" height="50"/>
	<rect x="252.381" y="602" stroke="#000000" stroke-miterlimit="10" width="50" height="50"/>
	<rect x="252.381" y="652" stroke="#000000" stroke-miterlimit="10" width="50" height="50"/>
	<rect x="202.381" y="652" stroke="#000000" stroke-miterlimit="10" width="50" height="50"/>
	<rect x="2.381" y="202" stroke="#000000" stroke-miterlimit="10" width="50" height="50"/>
	<rect x="252.381" y="202" stroke="#000000" stroke-miterlimit="10" width="50" height="50"/>
	<rect x="302.381" y="152" stroke="#000000" stroke-miterlimit="10" width="50" height="50"/>
	<rect x="302.381" y="102" stroke="#000000" stroke-miterlimit="10" width="50" height="50"/>
	<rect x="302.381" y="52" stroke="#000000" stroke-miterlimit="10" width="50" height="50"/>
	<rect x="352.381" y="2" stroke="#000000" stroke-miterlimit="10" width="50" height="50"/>
	<rect x="402.381" y="52" stroke="#000000" stroke-miterlimit="10" width="50" height="50"/>
	<rect x="402.381" y="102" stroke="#000000" stroke-miterlimit="10" width="50" height="50"/>
	<rect x="402.381" y="152" stroke="#000000" stroke-miterlimit="10" width="50" height="50"/>
	<rect x="402.381" y="252" stroke="#000000" stroke-miterlimit="10" width="50" height="50"/>
	<rect x="402.381" y="302" stroke="#000000" stroke-miterlimit="10" width="50" height="50"/>
	<rect x="402.381" y="202" stroke="#000000" stroke-miterlimit="10" width="50" height="50"/>
	<rect x="402.381" y="352" stroke="#000000" stroke-miterlimit="10" width="50" height="50"/>
	<rect x="402.381" y="402" stroke="#000000" stroke-miterlimit="10" width="50" height="50"/>
	<rect x="402.381" y="452" stroke="#000000" stroke-miterlimit="10" width="50" height="50"/>
	<rect x="402.381" y="502" stroke="#000000" stroke-miterlimit="10" width="50" height="50"/>
	<rect x="452.381" y="502" stroke="#000000" stroke-miterlimit="10" width="50" height="50"/>
	<rect x="502.381" y="502" stroke="#000000" stroke-miterlimit="10" width="50" height="50"/>
	<rect x="502.381" y="452" stroke="#000000" stroke-miterlimit="10" width="50" height="50"/>
	<rect x="602.381" y="402" stroke="#000000" stroke-miterlimit="10" width="50" height="50"/>
	<rect x="602.381" y="352" stroke="#000000" stroke-miterlimit="10" width="50" height="50"/>
	<rect x="552.381" y="352" stroke="#000000" stroke-miterlimit="10" width="50" height="50"/>
	<rect x="452.381" y="352" stroke="#000000" stroke-miterlimit="10" width="50" height="50"/>
	<rect x="552.381" y="502" stroke="#000000" stroke-miterlimit="10" width="50" height="50"/>
	<rect x="602.381" y="502" stroke="#000000" stroke-miterlimit="10" width="50" height="50"/>
	<rect x="602.381" y="452" stroke="#000000" stroke-miterlimit="10" width="50" height="50"/>
	<rect x="2.381" y="652" stroke="#000000" stroke-miterlimit="10" width="50" height="50"/>
	<rect x="2.381" y="602" stroke="#000000" stroke-miterlimit="10" width="50" height="50"/>
	<rect x="53.381" y="550" stroke="#000000" stroke-miterlimit="10" width="50" height="50"/>
	<rect x="3.381" y="750" stroke="#000000" stroke-miterlimit="10" width="50" height="53"/>
	<rect x="53.381" y="747" stroke="#000000" stroke-miterlimit="10" width="50" height="53"/>
	<rect x="53.381" y="797" stroke="#000000" stroke-miterlimit="10" width="50" height="53"/>
	<rect x="53.381" y="847" stroke="#000000" stroke-miterlimit="10" width="50" height="53"/>
	<rect x="103.381" y="847" stroke="#000000" stroke-miterlimit="10" width="50" height="53"/>
	<rect x="153.381" y="897" stroke="#000000" stroke-miterlimit="10" width="50" height="53"/>
	<rect x="553.381" y="747" stroke="#000000" stroke-miterlimit="10" width="50" height="53"/>
	<rect x="503.381" y="797" stroke="#000000" stroke-miterlimit="10" width="50" height="53"/>
	<rect x="503.381" y="847" stroke="#000000" stroke-miterlimit="10" width="50" height="53"/>
	<rect x="553.381" y="700" stroke="#000000" stroke-miterlimit="10" width="50" height="53"/>
	<rect x="553.381" y="650" stroke="#000000" stroke-miterlimit="10" width="50" height="53"/>
	<rect x="553.381" y="600" stroke="#000000" stroke-miterlimit="10" width="50" height="53"/>
	<rect x="553.381" y="550" stroke="#000000" stroke-miterlimit="10" width="50" height="53"/>
	<rect x="503.381" y="897" stroke="#000000" stroke-miterlimit="10" width="50" height="53"/>
	<rect x="503.381" y="947" stroke="#000000" stroke-miterlimit="10" width="50" height="53"/>
	<rect x="503.381" y="997" stroke="#000000" stroke-miterlimit="10" width="50" height="53"/>
	<rect x="153.381" y="947" stroke="#000000" stroke-miterlimit="10" width="50" height="53"/>
	<rect x="153.381" y="997" stroke="#000000" stroke-miterlimit="10" width="50" height="53"/>
	<rect x="3.381" y="700" stroke="#000000" stroke-miterlimit="10" width="50" height="53"/>
</g>
</svg>
