<?xml version="1.0" encoding="utf-8"?>
<!-- Generator: Adobe Illustrator 15.0.0, SVG Export Plug-In . SVG Version: 6.00 Build 0)  -->
<!DOCTYPE svg PUBLIC "-//W3C//DTD SVG 1.1//EN" "http://www.w3.org/Graphics/SVG/1.1/DTD/svg11.dtd">
<svg version="1.1" id="Layer_1" xmlns="http://www.w3.org/2000/svg" xmlns:xlink="http://www.w3.org/1999/xlink" x="0px" y="0px"
	 width="702.381px" height="998.254px" viewBox="0 0 702.381 998.254" enable-background="new 0 0 702.381 998.254"
	 xml:space="preserve">
<g>
	<rect x="191.69" y="139.627" stroke="#000000" stroke-miterlimit="10" width="50" height="50"/>
	<rect x="241.69" y="89.627" stroke="#000000" stroke-miterlimit="10" width="50" height="50"/>
	<rect x="291.69" y="89.627" stroke="#000000" stroke-miterlimit="10" width="50" height="50"/>
	<rect x="441.69" y="89.627" stroke="#000000" stroke-miterlimit="10" width="50" height="50"/>
	<rect x="491.69" y="189.627" stroke="#000000" stroke-miterlimit="10" width="50" height="50"/>
	<rect x="491.69" y="139.627" stroke="#000000" stroke-miterlimit="10" width="50" height="50"/>
	<rect x="541.69" y="189.627" stroke="#000000" stroke-miterlimit="10" width="50" height="50"/>
	<rect x="391.69" y="89.627" stroke="#000000" stroke-miterlimit="10" width="50" height="50"/>
	<rect x="341.69" y="89.627" stroke="#000000" stroke-miterlimit="10" width="50" height="50"/>
	<rect x="191.69" y="189.627" stroke="#000000" stroke-miterlimit="10" width="50" height="50"/>
	<rect x="191.69" y="239.627" stroke="#000000" stroke-miterlimit="10" width="50" height="50"/>
	<rect x="141.69" y="239.627" stroke="#000000" stroke-miterlimit="10" width="50" height="50"/>
	<rect x="191.69" y="289.627" stroke="#000000" stroke-miterlimit="10" width="50" height="50"/>
	<rect x="141.69" y="289.627" stroke="#000000" stroke-miterlimit="10" width="50" height="50"/>
	<rect x="141.69" y="189.627" stroke="#000000" stroke-miterlimit="10" width="50" height="50"/>
	<rect x="541.69" y="239.627" stroke="#000000" stroke-miterlimit="10" width="50" height="50"/>
	<rect x="541.69" y="289.627" stroke="#000000" stroke-miterlimit="10" width="50" height="50"/>
	<rect x="491.69" y="289.627" stroke="#000000" stroke-miterlimit="10" width="50" height="50"/>
	<rect x="541.69" y="339.627" stroke="#000000" stroke-miterlimit="10" width="50" height="50"/>
	<rect x="491.69" y="339.627" stroke="#000000" stroke-miterlimit="10" width="50" height="50"/>
	<rect x="541.69" y="389.627" stroke="#000000" stroke-miterlimit="10" width="50" height="50"/>
	<rect x="491.69" y="389.627" stroke="#000000" stroke-miterlimit="10" width="50" height="50"/>
	<rect x="341.69" y="539.627" stroke="#000000" stroke-miterlimit="10" width="50" height="50"/>
	<rect x="291.69" y="539.627" stroke="#000000" stroke-miterlimit="10" width="50" height="50"/>
	<rect x="341.69" y="589.627" stroke="#000000" stroke-miterlimit="10" width="50" height="50"/>
	<rect x="291.69" y="589.627" stroke="#000000" stroke-miterlimit="10" width="50" height="50"/>
	<rect x="341.69" y="639.627" stroke="#000000" stroke-miterlimit="10" width="50" height="50"/>
	<rect x="291.69" y="639.627" stroke="#000000" stroke-miterlimit="10" width="50" height="50"/>
	<rect x="341.69" y="739.627" stroke="#000000" stroke-miterlimit="10" width="50" height="50"/>
	<rect x="291.69" y="739.627" stroke="#000000" stroke-miterlimit="10" width="50" height="50"/>
	<rect x="341.69" y="789.627" stroke="#000000" stroke-miterlimit="10" width="50" height="50"/>
	<rect x="291.69" y="789.627" stroke="#000000" stroke-miterlimit="10" width="50" height="50"/>
	<rect x="491.69" y="439.627" stroke="#000000" stroke-miterlimit="10" width="50" height="50"/>
	<rect x="441.69" y="439.627" stroke="#000000" stroke-miterlimit="10" width="50" height="50"/>
	<rect x="441.69" y="489.627" stroke="#000000" stroke-miterlimit="10" width="50" height="50"/>
	<rect x="391.69" y="489.627" stroke="#000000" stroke-miterlimit="10" width="50" height="50"/>
	<rect x="491.69" y="239.627" stroke="#000000" stroke-miterlimit="10" width="50" height="50"/>
	<rect x="141.69" y="139.627" stroke="#000000" stroke-miterlimit="10" width="50" height="50"/>
</g>
</svg>
