<?xml version="1.0" encoding="utf-8"?>
<!-- Generator: Adobe Illustrator 15.0.0, SVG Export Plug-In . SVG Version: 6.00 Build 0)  -->
<!DOCTYPE svg PUBLIC "-//W3C//DTD SVG 1.1//EN" "http://www.w3.org/Graphics/SVG/1.1/DTD/svg11.dtd">
<svg version="1.1" id="Layer_1" xmlns="http://www.w3.org/2000/svg" xmlns:xlink="http://www.w3.org/1999/xlink" x="0px" y="0px"
	 width="850px" height="950px" viewBox="0 0 850 950" enable-background="new 0 0 850 950" xml:space="preserve">
<g>
	<g>
		<rect x="2.381" y="451.746" stroke="#000000" stroke-miterlimit="10" width="50" height="50"/>
		<rect x="52.381" y="451.746" stroke="#000000" stroke-miterlimit="10" width="50" height="50"/>
		<rect x="102.381" y="451.746" stroke="#000000" stroke-miterlimit="10" width="50" height="50"/>
		<rect x="152.381" y="401.746" stroke="#000000" stroke-miterlimit="10" width="50" height="50"/>
		<rect x="152.381" y="351.746" stroke="#000000" stroke-miterlimit="10" width="50" height="50"/>
		<rect x="202.381" y="351.746" stroke="#000000" stroke-miterlimit="10" width="50" height="50"/>
		<rect x="252.381" y="301.746" stroke="#000000" stroke-miterlimit="10" width="50" height="50"/>
		<rect x="252.381" y="251.746" stroke="#000000" stroke-miterlimit="10" width="50" height="50"/>
		<rect x="302.381" y="201.746" stroke="#000000" stroke-miterlimit="10" width="50" height="50"/>
		<rect x="302.381" y="151.746" stroke="#000000" stroke-miterlimit="10" width="50" height="50"/>
		<rect x="302.381" y="101.746" stroke="#000000" stroke-miterlimit="10" width="50" height="50"/>
		<rect x="302.381" y="51.746" stroke="#000000" stroke-miterlimit="10" width="50" height="50"/>
		<rect x="452.381" y="201.746" stroke="#000000" stroke-miterlimit="10" width="50" height="50"/>
		<rect x="502.381" y="251.746" stroke="#000000" stroke-miterlimit="10" width="50" height="50"/>
		<rect x="452.381" y="151.746" stroke="#000000" stroke-miterlimit="10" width="50" height="50"/>
		<rect x="452.381" y="101.746" stroke="#000000" stroke-miterlimit="10" width="50" height="50"/>
		<rect x="302.381" y="1.746" stroke="#000000" stroke-miterlimit="10" width="50" height="50"/>
		<rect x="352.381" y="1.746" stroke="#000000" stroke-miterlimit="10" width="50" height="50"/>
		<rect x="402.381" y="51.746" stroke="#000000" stroke-miterlimit="10" width="50" height="50"/>
		<rect x="52.381" y="801.746" stroke="#000000" stroke-miterlimit="10" width="50" height="50"/>
		<rect x="2.381" y="801.746" stroke="#000000" stroke-miterlimit="10" width="50" height="50"/>
		<rect x="102.381" y="801.746" stroke="#000000" stroke-miterlimit="10" width="50" height="50"/>
		<rect x="152.381" y="801.746" stroke="#000000" stroke-miterlimit="10" width="50" height="50"/>
		<rect x="202.381" y="801.746" stroke="#000000" stroke-miterlimit="10" width="50" height="50"/>
		<rect x="252.381" y="801.746" stroke="#000000" stroke-miterlimit="10" width="50" height="50"/>
		<rect x="502.381" y="301.746" stroke="#000000" stroke-miterlimit="10" width="50" height="50"/>
		<rect x="552.381" y="301.746" stroke="#000000" stroke-miterlimit="10" width="50" height="50"/>
		<rect x="602.381" y="301.746" stroke="#000000" stroke-miterlimit="10" width="50" height="50"/>
		<rect x="652.381" y="301.746" stroke="#000000" stroke-miterlimit="10" width="50" height="50"/>
		<rect x="702.381" y="301.746" stroke="#000000" stroke-miterlimit="10" width="50" height="50"/>
		<rect x="502.381" y="451.746" stroke="#000000" stroke-miterlimit="10" width="50" height="50"/>
		<rect x="552.381" y="451.746" stroke="#000000" stroke-miterlimit="10" width="50" height="50"/>
		<rect x="602.381" y="451.746" stroke="#000000" stroke-miterlimit="10" width="50" height="50"/>
		<rect x="652.381" y="451.746" stroke="#000000" stroke-miterlimit="10" width="50" height="50"/>
		<rect x="702.381" y="451.746" stroke="#000000" stroke-miterlimit="10" width="50" height="50"/>
		<rect x="752.381" y="451.746" stroke="#000000" stroke-miterlimit="10" width="50" height="50"/>
		<rect x="552.381" y="601.746" stroke="#000000" stroke-miterlimit="10" width="50" height="50"/>
		<rect x="602.381" y="601.746" stroke="#000000" stroke-miterlimit="10" width="50" height="50"/>
		<rect x="652.381" y="601.746" stroke="#000000" stroke-miterlimit="10" width="50" height="50"/>
		<rect x="702.381" y="601.746" stroke="#000000" stroke-miterlimit="10" width="50" height="50"/>
		<rect x="752.381" y="601.746" stroke="#000000" stroke-miterlimit="10" width="50" height="50"/>
		<rect x="302.381" y="851.746" stroke="#000000" stroke-miterlimit="10" width="50" height="50"/>
		<rect x="352.381" y="851.746" stroke="#000000" stroke-miterlimit="10" width="50" height="50"/>
		<rect x="402.381" y="851.746" stroke="#000000" stroke-miterlimit="10" width="50" height="50"/>
		<rect x="452.381" y="851.746" stroke="#000000" stroke-miterlimit="10" width="50" height="50"/>
		<rect x="502.381" y="851.746" stroke="#000000" stroke-miterlimit="10" width="50" height="50"/>
		<rect x="502.381" y="801.746" stroke="#000000" stroke-miterlimit="10" width="50" height="50"/>
		<rect x="702.381" y="851.746" stroke="#000000" stroke-miterlimit="10" width="50" height="50"/>
		<rect x="702.381" y="801.746" stroke="#000000" stroke-miterlimit="10" width="50" height="50"/>
		<rect x="752.381" y="401.746" stroke="#000000" stroke-miterlimit="10" width="50" height="50"/>
		<rect x="752.381" y="351.746" stroke="#000000" stroke-miterlimit="10" width="50" height="50"/>
		<rect x="802.381" y="551.746" stroke="#000000" stroke-miterlimit="10" width="50" height="50"/>
		<rect x="802.381" y="501.746" stroke="#000000" stroke-miterlimit="10" width="50" height="50"/>
		<rect x="752.381" y="701.746" stroke="#000000" stroke-miterlimit="10" width="50" height="50"/>
		<rect x="752.381" y="651.746" stroke="#000000" stroke-miterlimit="10" width="50" height="50"/>
		<rect x="502.381" y="401.746" stroke="#000000" stroke-miterlimit="10" width="50" height="50"/>
		<rect x="502.381" y="601.746" stroke="#000000" stroke-miterlimit="10" width="50" height="50"/>
		<rect x="502.381" y="651.746" stroke="#000000" stroke-miterlimit="10" width="50" height="50"/>
		<rect x="502.381" y="701.746" stroke="#000000" stroke-miterlimit="10" width="50" height="50"/>
		<rect x="502.381" y="551.746" stroke="#000000" stroke-miterlimit="10" width="50" height="50"/>
		<rect x="502.381" y="501.746" stroke="#000000" stroke-miterlimit="10" width="50" height="50"/>
		<rect x="452.381" y="501.746" stroke="#000000" stroke-miterlimit="10" width="50" height="50"/>
		<rect x="402.381" y="501.746" stroke="#000000" stroke-miterlimit="10" width="50" height="50"/>
		<rect x="402.381" y="451.746" stroke="#000000" stroke-miterlimit="10" width="50" height="50"/>
		<rect x="502.381" y="351.746" stroke="#000000" stroke-miterlimit="10" width="50" height="50"/>
		<rect x="502.381" y="901.746" stroke="#000000" stroke-miterlimit="10" width="50" height="50"/>
		<rect x="552.381" y="901.746" stroke="#000000" stroke-miterlimit="10" width="50" height="50"/>
		<rect x="602.381" y="901.746" stroke="#000000" stroke-miterlimit="10" width="50" height="50"/>
		<rect x="652.381" y="901.746" stroke="#000000" stroke-miterlimit="10" width="50" height="50"/>
		<rect x="552.381" y="751.746" stroke="#000000" stroke-miterlimit="10" width="50" height="50"/>
		<rect x="602.381" y="751.746" stroke="#000000" stroke-miterlimit="10" width="50" height="50"/>
		<rect x="652.381" y="751.746" stroke="#000000" stroke-miterlimit="10" width="50" height="50"/>
		<rect x="702.381" y="751.746" stroke="#000000" stroke-miterlimit="10" width="50" height="50"/>
	</g>
	<rect x="2.381" y="501.746" fill="#FFFFFF" width="50" height="50"/>
	<rect x="2.381" y="551.746" fill="#FFFFFF" width="50" height="50"/>
	<rect x="2.381" y="601.746" fill="#FFFFFF" width="50" height="50"/>
	<rect x="2.381" y="651.746" fill="#FFFFFF" width="50" height="50"/>
	<rect x="2.381" y="701.746" fill="#FFFFFF" width="50" height="50"/>
	<rect x="2.381" y="751.746" fill="#FFFFFF" width="50" height="50"/>
	<rect x="52.381" y="501.746" fill="#FFFFFF" width="50" height="50"/>
	<rect x="52.381" y="551.746" fill="#FFFFFF" width="50" height="50"/>
	<rect x="52.381" y="601.746" fill="#FFFFFF" width="50" height="50"/>
	<rect x="52.381" y="651.746" fill="#FFFFFF" width="50" height="50"/>
	<rect x="52.381" y="701.746" fill="#FFFFFF" width="50" height="50"/>
	<rect x="52.381" y="751.746" fill="#FFFFFF" width="50" height="50"/>
	<rect x="102.381" y="501.746" fill="#FFFFFF" width="50" height="50"/>
	<rect x="102.381" y="551.746" fill="#FFFFFF" width="50" height="50"/>
	<rect x="102.381" y="601.746" fill="#FFFFFF" width="50" height="50"/>
	<rect x="102.381" y="651.746" fill="#FFFFFF" width="50" height="50"/>
	<rect x="102.381" y="701.746" fill="#FFFFFF" width="50" height="50"/>
	<rect x="102.381" y="751.746" fill="#FFFFFF" width="50" height="50"/>
	<rect x="152.381" y="501.746" fill="#FFFFFF" width="50" height="50"/>
	<rect x="152.381" y="551.746" fill="#FFFFFF" width="50" height="50"/>
	<rect x="152.381" y="601.746" fill="#FFFFFF" width="50" height="50"/>
	<rect x="152.381" y="651.746" fill="#FFFFFF" width="50" height="50"/>
	<rect x="152.381" y="701.746" fill="#FFFFFF" width="50" height="50"/>
	<rect x="152.381" y="751.746" fill="#FFFFFF" width="50" height="50"/>
	<rect x="202.381" y="501.746" fill="#FFFFFF" width="50" height="50"/>
	<rect x="202.381" y="551.746" fill="#FFFFFF" width="50" height="50"/>
	<rect x="202.381" y="601.746" fill="#FFFFFF" width="50" height="50"/>
	<rect x="202.381" y="651.746" fill="#FFFFFF" width="50" height="50"/>
	<rect x="202.381" y="701.746" fill="#FFFFFF" width="50" height="50"/>
	<rect x="202.381" y="751.746" fill="#FFFFFF" width="50" height="50"/>
	<rect x="252.381" y="501.746" fill="#FFFFFF" width="50" height="50"/>
	<rect x="252.381" y="551.746" fill="#FFFFFF" width="50" height="50"/>
	<rect x="252.381" y="601.746" fill="#FFFFFF" width="50" height="50"/>
	<rect x="252.381" y="651.746" fill="#FFFFFF" width="50" height="50"/>
	<rect x="252.381" y="701.746" fill="#FFFFFF" width="50" height="50"/>
	<rect x="252.381" y="751.746" fill="#FFFFFF" width="50" height="50"/>
	<rect x="302.381" y="501.746" fill="#FFFFFF" width="50" height="50"/>
	<rect x="302.381" y="551.746" fill="#FFFFFF" width="50" height="50"/>
	<rect x="302.381" y="601.746" fill="#FFFFFF" width="50" height="50"/>
	<rect x="302.381" y="651.746" fill="#FFFFFF" width="50" height="50"/>
	<rect x="302.381" y="701.746" fill="#FFFFFF" width="50" height="50"/>
	<rect x="302.381" y="751.746" fill="#FFFFFF" width="50" height="50"/>
	<rect x="352.381" y="501.746" fill="#FFFFFF" width="50" height="50"/>
	<rect x="352.381" y="551.746" fill="#FFFFFF" width="50" height="50"/>
	<rect x="352.381" y="601.746" fill="#FFFFFF" width="50" height="50"/>
	<rect x="352.381" y="651.746" fill="#FFFFFF" width="50" height="50"/>
	<rect x="352.381" y="701.746" fill="#FFFFFF" width="50" height="50"/>
	<rect x="352.381" y="751.746" fill="#FFFFFF" width="50" height="50"/>
	<rect x="352.381" y="201.746" fill="#FFFFFF" width="50" height="50"/>
	<rect x="352.381" y="251.746" fill="#FFFFFF" width="50" height="50"/>
	<rect x="352.381" y="301.746" fill="#FFFFFF" width="50" height="50"/>
	<rect x="352.381" y="351.746" fill="#FFFFFF" width="50" height="50"/>
	<rect x="352.381" y="401.746" fill="#FFFFFF" width="50" height="50"/>
	<rect x="352.381" y="451.746" fill="#FFFFFF" width="50" height="50"/>
	<rect x="402.381" y="151.746" fill="#FFFFFF" width="50" height="50"/>
	<rect x="402.381" y="201.746" fill="#FFFFFF" width="50" height="50"/>
	<rect x="402.381" y="251.746" fill="#FFFFFF" width="50" height="50"/>
	<rect x="402.381" y="301.746" fill="#FFFFFF" width="50" height="50"/>
	<rect x="402.381" y="351.746" fill="#FFFFFF" width="50" height="50"/>
	<rect x="402.381" y="401.746" fill="#FFFFFF" width="50" height="50"/>
	<rect x="402.381" y="551.746" fill="#FFFFFF" width="50" height="50"/>
	<rect x="402.381" y="601.746" fill="#FFFFFF" width="50" height="50"/>
	<rect x="402.381" y="651.746" fill="#FFFFFF" width="50" height="50"/>
	<rect x="402.381" y="701.746" fill="#FFFFFF" width="50" height="50"/>
	<rect x="402.381" y="751.746" fill="#FFFFFF" width="50" height="50"/>
	<rect x="402.381" y="801.746" fill="#FFFFFF" width="50" height="50"/>
	<rect x="452.381" y="551.746" fill="#FFFFFF" width="50" height="50"/>
	<rect x="452.381" y="601.746" fill="#FFFFFF" width="50" height="50"/>
	<rect x="452.381" y="651.746" fill="#FFFFFF" width="50" height="50"/>
	<rect x="452.381" y="701.746" fill="#FFFFFF" width="50" height="50"/>
	<rect x="452.381" y="751.746" fill="#FFFFFF" width="50" height="50"/>
	<rect x="452.381" y="251.746" fill="#FFFFFF" width="50" height="50"/>
	<rect x="452.381" y="301.746" fill="#FFFFFF" width="50" height="50"/>
	<rect x="452.381" y="351.746" fill="#FFFFFF" width="50" height="50"/>
	<rect x="452.381" y="401.746" fill="#FFFFFF" width="50" height="50"/>
	<rect x="452.381" y="451.746" fill="#FFFFFF" width="50" height="50"/>
	<rect x="302.381" y="251.746" fill="#FFFFFF" width="50" height="50"/>
	<rect x="302.381" y="301.746" fill="#FFFFFF" width="50" height="50"/>
	<rect x="252.381" y="351.746" fill="#FFFFFF" width="50" height="50"/>
	<rect x="202.381" y="401.746" fill="#FFFFFF" width="50" height="50"/>
	<rect x="152.381" y="451.746" fill="#FFFFFF" width="50" height="50"/>
	<rect x="202.381" y="451.746" fill="#FFFFFF" width="50" height="50"/>
	<rect x="252.381" y="451.746" fill="#FFFFFF" width="50" height="50"/>
	<rect x="252.381" y="401.746" fill="#FFFFFF" width="50" height="50"/>
	<rect x="352.381" y="151.746" fill="#FFFFFF" width="50" height="50"/>
	<rect x="352.381" y="101.746" fill="#FFFFFF" width="50" height="50"/>
	<rect x="352.381" y="51.746" fill="#FFFFFF" width="50" height="50"/>
	<rect x="402.381" y="101.746" fill="#FFFFFF" width="50" height="50"/>
	<rect x="302.381" y="801.746" fill="#FFFFFF" width="50" height="50"/>
	<rect x="352.381" y="801.746" fill="#FFFFFF" width="50" height="50"/>
	<rect x="552.381" y="351.746" fill="#FFFFFF" width="50" height="50"/>
	<rect x="602.381" y="351.746" fill="#FFFFFF" width="50" height="50"/>
	<rect x="652.381" y="351.746" fill="#FFFFFF" width="50" height="50"/>
	<rect x="702.381" y="351.746" fill="#FFFFFF" width="50" height="50"/>
	<rect x="702.381" y="401.746" fill="#FFFFFF" width="50" height="50"/>
	<rect x="602.381" y="401.746" fill="#FFFFFF" width="50" height="50"/>
	<rect x="652.381" y="401.746" fill="#FFFFFF" width="50" height="50"/>
	<rect x="552.381" y="401.746" fill="#FFFFFF" width="50" height="50"/>
	<rect x="552.381" y="501.746" fill="#FFFFFF" width="50" height="50"/>
	<rect x="602.381" y="501.746" fill="#FFFFFF" width="50" height="50"/>
	<rect x="652.381" y="501.746" fill="#FFFFFF" width="50" height="50"/>
	<rect x="702.381" y="501.746" fill="#FFFFFF" width="50" height="50"/>
	<rect x="702.381" y="551.746" fill="#FFFFFF" width="50" height="50"/>
	<rect x="602.381" y="551.746" fill="#FFFFFF" width="50" height="50"/>
	<rect x="652.381" y="551.746" fill="#FFFFFF" width="50" height="50"/>
	<rect x="552.381" y="551.746" fill="#FFFFFF" width="50" height="50"/>
	<rect x="552.381" y="651.746" fill="#FFFFFF" width="50" height="50"/>
	<rect x="602.381" y="651.746" fill="#FFFFFF" width="50" height="50"/>
	<rect x="652.381" y="651.746" fill="#FFFFFF" width="50" height="50"/>
	<rect x="702.381" y="651.746" fill="#FFFFFF" width="50" height="50"/>
	<rect x="702.381" y="701.746" fill="#FFFFFF" width="50" height="50"/>
	<rect x="602.381" y="701.746" fill="#FFFFFF" width="50" height="50"/>
	<rect x="652.381" y="701.746" fill="#FFFFFF" width="50" height="50"/>
	<rect x="552.381" y="701.746" fill="#FFFFFF" width="50" height="50"/>
	<rect x="552.381" y="801.746" fill="#FFFFFF" width="50" height="50"/>
	<rect x="502.381" y="751.746" fill="#FFFFFF" width="50" height="50"/>
	<rect x="752.381" y="501.746" fill="#FFFFFF" width="50" height="50"/>
	<rect x="752.381" y="551.746" fill="#FFFFFF" width="50" height="50"/>
	<rect x="602.381" y="801.746" fill="#FFFFFF" width="50" height="50"/>
	<rect x="652.381" y="801.746" fill="#FFFFFF" width="50" height="50"/>
	<rect x="602.381" y="851.746" fill="#FFFFFF" width="50" height="50"/>
	<rect x="652.381" y="851.746" fill="#FFFFFF" width="50" height="50"/>
	<rect x="552.381" y="851.746" fill="#FFFFFF" width="50" height="50"/>
	<rect x="302.381" y="351.746" fill="#FFFFFF" width="50" height="50"/>
	<rect x="302.381" y="401.746" fill="#FFFFFF" width="50" height="50"/>
	<rect x="302.381" y="451.746" fill="#FFFFFF" width="50" height="50"/>
	<rect x="452.381" y="801.746" fill="#FFFFFF" width="50" height="50"/>
</g>
</svg>
