<?xml version="1.0" encoding="utf-8"?>
<!-- Generator: Adobe Illustrator 15.0.0, SVG Export Plug-In . SVG Version: 6.00 Build 0)  -->
<!DOCTYPE svg PUBLIC "-//W3C//DTD SVG 1.1//EN" "http://www.w3.org/Graphics/SVG/1.1/DTD/svg11.dtd">
<svg version="1.1" id="Layer_1" xmlns="http://www.w3.org/2000/svg" xmlns:xlink="http://www.w3.org/1999/xlink" x="0px" y="0px"
	 width="1727.5px" height="110px" viewBox="0 0 1727.5 110" enable-background="new 0 0 1727.5 110" xml:space="preserve">
<rect x="1235" y="28.5" width="10" height="10"/>
<rect x="1235" y="38.5" width="10" height="10"/>
<rect x="1235" y="48.5" width="10" height="10"/>
<rect x="1235" y="58.5" width="10" height="10"/>
<rect x="1235" y="68.5" width="10" height="10"/>
<rect x="1235" y="78.5" width="10" height="10"/>
<rect x="1235" y="88.5" width="10" height="10"/>
<rect x="1235" y="18.5" width="10" height="10"/>
<rect x="1235" y="8.5" width="10" height="10"/>
<rect x="1275" y="28.5" width="10" height="10"/>
<rect x="1275" y="38.5" width="10" height="10"/>
<rect x="1275" y="48.5" width="10" height="10"/>
<rect x="1275" y="58.5" width="10" height="10"/>
<rect x="1275" y="68.5" width="10" height="10"/>
<rect x="1275" y="78.5" width="10" height="10"/>
<rect x="1275" y="88.5" width="10" height="10"/>
<rect x="1275" y="18.5" width="10" height="10"/>
<rect x="1275" y="8.5" width="10" height="10"/>
<rect x="1265" y="8.5" width="10" height="10"/>
<rect x="1255" y="8.5" width="10" height="10"/>
<rect x="1245" y="8.5" width="10" height="10"/>
<rect x="1265" y="88.5" width="10" height="10"/>
<rect x="1255" y="88.5" width="10" height="10"/>
<rect x="1245" y="88.5" width="10" height="10"/>
<rect x="855" y="28.5" width="10" height="10"/>
<rect x="855" y="38.5" width="10" height="10"/>
<rect x="855" y="48.5" width="10" height="10"/>
<rect x="855" y="58.5" width="10" height="10"/>
<rect x="855" y="68.5" width="10" height="10"/>
<rect x="855" y="78.5" width="10" height="10"/>
<rect x="855" y="88.5" width="10" height="10"/>
<rect x="855" y="18.5" width="10" height="10"/>
<rect x="855" y="8.5" width="10" height="10"/>
<rect x="895" y="28.5" width="10" height="10"/>
<rect x="895" y="38.5" width="10" height="10"/>
<rect x="895" y="48.5" width="10" height="10"/>
<rect x="895" y="58.5" width="10" height="10"/>
<rect x="895" y="68.5" width="10" height="10"/>
<rect x="895" y="78.5" width="10" height="10"/>
<rect x="895" y="88.5" width="10" height="10"/>
<rect x="895" y="18.5" width="10" height="10"/>
<rect x="895" y="8.5" width="10" height="10"/>
<rect x="885" y="8.5" width="10" height="10"/>
<rect x="875" y="8.5" width="10" height="10"/>
<rect x="865" y="8.5" width="10" height="10"/>
<rect x="885" y="88.5" width="10" height="10"/>
<rect x="875" y="88.5" width="10" height="10"/>
<rect x="865" y="88.5" width="10" height="10"/>
<rect x="656" y="28.5" width="10" height="10"/>
<rect x="656" y="38.5" width="10" height="10"/>
<rect x="656" y="48.5" width="10" height="10"/>
<rect x="656" y="58.5" width="10" height="10"/>
<rect x="656" y="68.5" width="10" height="10"/>
<rect x="656" y="78.5" width="10" height="10"/>
<rect x="656" y="88.5" width="10" height="10"/>
<rect x="656" y="18.5" width="10" height="10"/>
<rect x="656" y="8.5" width="10" height="10"/>
<rect x="696" y="88.5" width="10" height="10"/>
<rect x="696" y="8.5" width="10" height="10"/>
<rect x="686" y="8.5" width="10" height="10"/>
<rect x="676" y="8.5" width="10" height="10"/>
<rect x="666" y="8.5" width="10" height="10"/>
<rect x="686" y="88.5" width="10" height="10"/>
<rect x="676" y="88.5" width="10" height="10"/>
<rect x="666" y="88.5" width="10" height="10"/>
<rect x="1175" y="28.5" width="10" height="10"/>
<rect x="1175" y="38.5" width="10" height="10"/>
<rect x="1175" y="48.5" width="10" height="10"/>
<rect x="1175" y="58.5" width="10" height="10"/>
<rect x="1175" y="68.5" width="10" height="10"/>
<rect x="1175" y="78.5" width="10" height="10"/>
<rect x="1175" y="88.5" width="10" height="10"/>
<rect x="1175" y="18.5" width="10" height="10"/>
<rect x="1175" y="8.5" width="10" height="10"/>
<rect x="1215" y="88.5" width="10" height="10"/>
<rect x="1215" y="8.5" width="10" height="10"/>
<rect x="1205" y="8.5" width="10" height="10"/>
<rect x="1195" y="8.5" width="10" height="10"/>
<rect x="1185" y="8.5" width="10" height="10"/>
<rect x="1205" y="88.5" width="10" height="10"/>
<rect x="1195" y="88.5" width="10" height="10"/>
<rect x="1185" y="88.5" width="10" height="10"/>
<rect x="1533" y="28.5" width="10" height="10"/>
<rect x="1533" y="38.5" width="10" height="10"/>
<rect x="1533" y="48.5" width="10" height="10"/>
<rect x="1533" y="58.5" width="10" height="10"/>
<rect x="1533" y="68.5" width="10" height="10"/>
<rect x="1533" y="78.5" width="10" height="10"/>
<rect x="1533" y="88.5" width="10" height="10"/>
<rect x="1533" y="18.5" width="10" height="10"/>
<rect x="1533" y="8.5" width="10" height="10"/>
<rect x="1573" y="88.5" width="10" height="10"/>
<rect x="1573" y="8.5" width="10" height="10"/>
<rect x="1563" y="8.5" width="10" height="10"/>
<rect x="1553" y="8.5" width="10" height="10"/>
<rect x="1543" y="8.5" width="10" height="10"/>
<rect x="1563" y="88.5" width="10" height="10"/>
<rect x="1553" y="88.5" width="10" height="10"/>
<rect x="1543" y="88.5" width="10" height="10"/>
<rect x="336" y="28.5" width="10" height="10"/>
<rect x="336" y="38.5" width="10" height="10"/>
<rect x="336" y="48.5" width="10" height="10"/>
<rect x="336" y="58.5" width="10" height="10"/>
<rect x="336" y="68.5" width="10" height="10"/>
<rect x="336" y="78.5" width="10" height="10"/>
<rect x="336" y="88.5" width="10" height="10"/>
<rect x="336" y="18.5" width="10" height="10"/>
<rect x="336" y="8.5" width="10" height="10"/>
<rect x="376" y="28.5" width="10" height="10"/>
<rect x="376" y="38.5" width="10" height="10"/>
<rect x="376" y="48.5" width="10" height="10"/>
<rect x="376" y="58.5" width="10" height="10"/>
<rect x="376" y="68.5" width="10" height="10"/>
<rect x="366" y="18.5" width="10" height="10"/>
<rect x="356" y="8.5" width="10" height="10"/>
<rect x="346" y="8.5" width="10" height="10"/>
<rect x="366" y="78.5" width="10" height="10"/>
<rect x="396" y="8.5" width="10" height="10"/>
<rect x="396" y="18.5" width="10" height="10"/>
<rect x="356" y="88.5" width="10" height="10"/>
<rect x="346" y="88.5" width="10" height="10"/>
<rect x="76" y="28.5" width="10" height="10"/>
<rect x="76" y="38.5" width="10" height="10"/>
<rect x="76" y="48.5" width="10" height="10"/>
<rect x="76" y="58.5" width="10" height="10"/>
<rect x="76" y="68.5" width="10" height="10"/>
<rect x="76" y="78.5" width="10" height="10"/>
<rect x="76" y="88.5" width="10" height="10"/>
<rect x="76" y="18.5" width="10" height="10"/>
<rect x="76" y="8.5" width="10" height="10"/>
<rect x="116" y="28.5" width="10" height="10"/>
<rect x="116" y="38.5" width="10" height="10"/>
<rect x="116" y="48.5" width="10" height="10"/>
<rect x="116" y="58.5" width="10" height="10"/>
<rect x="116" y="68.5" width="10" height="10"/>
<rect x="116" y="78.5" width="10" height="10"/>
<rect x="116" y="88.5" width="10" height="10"/>
<rect x="116" y="18.5" width="10" height="10"/>
<rect x="116" y="8.5" width="10" height="10"/>
<rect x="106" y="8.5" width="10" height="10"/>
<rect x="96" y="8.5" width="10" height="10"/>
<rect x="86" y="8.5" width="10" height="10"/>
<rect x="106" y="48.5" width="10" height="10"/>
<rect x="96" y="48.5" width="10" height="10"/>
<rect x="86" y="48.5" width="10" height="10"/>
<rect x="596" y="28.5" width="10" height="10"/>
<rect x="596" y="38.5" width="10" height="10"/>
<rect x="596" y="48.5" width="10" height="10"/>
<rect x="596" y="58.5" width="10" height="10"/>
<rect x="596" y="68.5" width="10" height="10"/>
<rect x="596" y="78.5" width="10" height="10"/>
<rect x="596" y="88.5" width="10" height="10"/>
<rect x="596" y="18.5" width="10" height="10"/>
<rect x="596" y="8.5" width="10" height="10"/>
<rect x="636" y="28.5" width="10" height="10"/>
<rect x="636" y="38.5" width="10" height="10"/>
<rect x="636" y="48.5" width="10" height="10"/>
<rect x="636" y="58.5" width="10" height="10"/>
<rect x="636" y="68.5" width="10" height="10"/>
<rect x="636" y="78.5" width="10" height="10"/>
<rect x="636" y="88.5" width="10" height="10"/>
<rect x="636" y="18.5" width="10" height="10"/>
<rect x="636" y="8.5" width="10" height="10"/>
<rect x="626" y="8.5" width="10" height="10"/>
<rect x="616" y="8.5" width="10" height="10"/>
<rect x="606" y="8.5" width="10" height="10"/>
<rect x="626" y="48.5" width="10" height="10"/>
<rect x="616" y="48.5" width="10" height="10"/>
<rect x="606" y="48.5" width="10" height="10"/>
<rect x="1295" y="28.5" width="10" height="10"/>
<rect x="1295" y="38.5" width="10" height="10"/>
<rect x="1295" y="48.5" width="10" height="10"/>
<rect x="1295" y="58.5" width="10" height="10"/>
<rect x="1295" y="68.5" width="10" height="10"/>
<rect x="1295" y="78.5" width="10" height="10"/>
<rect x="1295" y="88.5" width="10" height="10"/>
<rect x="1295" y="18.5" width="10" height="10"/>
<rect x="1295" y="8.5" width="10" height="10"/>
<rect x="1335" y="28.5" width="10" height="10"/>
<rect x="1335" y="38.5" width="10" height="10"/>
<rect x="1335" y="48.5" width="10" height="10"/>
<rect x="1335" y="58.5" width="10" height="10"/>
<rect x="1335" y="68.5" width="10" height="10"/>
<rect x="1335" y="78.5" width="10" height="10"/>
<rect x="1335" y="88.5" width="10" height="10"/>
<rect x="1335" y="18.5" width="10" height="10"/>
<rect x="1335" y="8.5" width="10" height="10"/>
<rect x="1325" y="8.5" width="10" height="10"/>
<rect x="1315" y="18.5" width="10" height="10"/>
<rect x="1305" y="8.5" width="10" height="10"/>
<rect x="1354" y="28.5" width="10" height="10"/>
<rect x="1354" y="38.5" width="10" height="10"/>
<rect x="1354" y="48.5" width="10" height="10"/>
<rect x="1354" y="58.5" width="10" height="10"/>
<rect x="1354" y="68.5" width="10" height="10"/>
<rect x="1354" y="78.5" width="10" height="10"/>
<rect x="1354" y="88.5" width="10" height="10"/>
<rect x="1354" y="18.5" width="10" height="10"/>
<rect x="1354" y="8.5" width="10" height="10"/>
<rect x="1394" y="28.5" width="10" height="10"/>
<rect x="1394" y="38.5" width="10" height="10"/>
<rect x="1394" y="48.5" width="10" height="10"/>
<rect x="1394" y="58.5" width="10" height="10"/>
<rect x="1394" y="68.5" width="10" height="10"/>
<rect x="1394" y="78.5" width="10" height="10"/>
<rect x="1394" y="88.5" width="10" height="10"/>
<rect x="1394" y="18.5" width="10" height="10"/>
<rect x="1394" y="8.5" width="10" height="10"/>
<rect x="1384" y="8.5" width="10" height="10"/>
<rect x="1374" y="18.5" width="10" height="10"/>
<rect x="1364" y="8.5" width="10" height="10"/>
<rect x="1473" y="28.5" width="10" height="10"/>
<rect x="1473" y="38.5" width="10" height="10"/>
<rect x="1473" y="48.5" width="10" height="10"/>
<rect x="1473" y="58.5" width="10" height="10"/>
<rect x="1473" y="68.5" width="10" height="10"/>
<rect x="1473" y="78.5" width="10" height="10"/>
<rect x="1473" y="88.5" width="10" height="10"/>
<rect x="1473" y="18.5" width="10" height="10"/>
<rect x="1473" y="8.5" width="10" height="10"/>
<rect x="1513" y="28.5" width="10" height="10"/>
<rect x="1513" y="38.5" width="10" height="10"/>
<rect x="1513" y="48.5" width="10" height="10"/>
<rect x="1513" y="58.5" width="10" height="10"/>
<rect x="1513" y="68.5" width="10" height="10"/>
<rect x="1513" y="78.5" width="10" height="10"/>
<rect x="1513" y="88.5" width="10" height="10"/>
<rect x="1513" y="18.5" width="10" height="10"/>
<rect x="1513" y="8.5" width="10" height="10"/>
<rect x="1503" y="28.5" width="10" height="10"/>
<rect x="1493" y="18.5" width="10" height="10"/>
<rect x="1483" y="8.5" width="10" height="10"/>
<rect x="266" y="48.5" width="10" height="10"/>
<rect x="276" y="48.5" width="10" height="10"/>
<rect x="256" y="28.5" width="10" height="10"/>
<rect x="256" y="38.5" width="10" height="10"/>
<rect x="256" y="48.5" width="10" height="10"/>
<rect x="256" y="58.5" width="10" height="10"/>
<rect x="256" y="68.5" width="10" height="10"/>
<rect x="256" y="78.5" width="10" height="10"/>
<rect x="256" y="88.5" width="10" height="10"/>
<rect x="256" y="18.5" width="10" height="10"/>
<rect x="256" y="8.5" width="10" height="10"/>
<rect x="296" y="88.5" width="10" height="10"/>
<rect x="296" y="8.5" width="10" height="10"/>
<rect x="286" y="8.5" width="10" height="10"/>
<rect x="276" y="8.5" width="10" height="10"/>
<rect x="266" y="8.5" width="10" height="10"/>
<rect x="286" y="88.5" width="10" height="10"/>
<rect x="276" y="88.5" width="10" height="10"/>
<rect x="266" y="88.5" width="10" height="10"/>
<rect x="726" y="48.5" width="10" height="10"/>
<rect x="736" y="48.5" width="10" height="10"/>
<rect x="716" y="28.5" width="10" height="10"/>
<rect x="716" y="38.5" width="10" height="10"/>
<rect x="716" y="48.5" width="10" height="10"/>
<rect x="716" y="58.5" width="10" height="10"/>
<rect x="716" y="68.5" width="10" height="10"/>
<rect x="716" y="78.5" width="10" height="10"/>
<rect x="716" y="88.5" width="10" height="10"/>
<rect x="716" y="18.5" width="10" height="10"/>
<rect x="716" y="8.5" width="10" height="10"/>
<rect x="756" y="88.5" width="10" height="10"/>
<rect x="756" y="8.5" width="10" height="10"/>
<rect x="746" y="8.5" width="10" height="10"/>
<rect x="736" y="8.5" width="10" height="10"/>
<rect x="726" y="8.5" width="10" height="10"/>
<rect x="746" y="88.5" width="10" height="10"/>
<rect x="736" y="88.5" width="10" height="10"/>
<rect x="726" y="88.5" width="10" height="10"/>
<rect x="1125" y="48.5" width="10" height="10"/>
<rect x="1135" y="48.5" width="10" height="10"/>
<rect x="1115" y="28.5" width="10" height="10"/>
<rect x="1115" y="38.5" width="10" height="10"/>
<rect x="1115" y="48.5" width="10" height="10"/>
<rect x="1115" y="58.5" width="10" height="10"/>
<rect x="1115" y="68.5" width="10" height="10"/>
<rect x="1115" y="78.5" width="10" height="10"/>
<rect x="1115" y="88.5" width="10" height="10"/>
<rect x="1115" y="18.5" width="10" height="10"/>
<rect x="1115" y="8.5" width="10" height="10"/>
<rect x="1155" y="88.5" width="10" height="10"/>
<rect x="1155" y="8.5" width="10" height="10"/>
<rect x="1145" y="8.5" width="10" height="10"/>
<rect x="1135" y="8.5" width="10" height="10"/>
<rect x="1125" y="8.5" width="10" height="10"/>
<rect x="1145" y="88.5" width="10" height="10"/>
<rect x="1135" y="88.5" width="10" height="10"/>
<rect x="1125" y="88.5" width="10" height="10"/>
<rect x="1424" y="48.5" width="10" height="10"/>
<rect x="1434" y="48.5" width="10" height="10"/>
<rect x="1414" y="28.5" width="10" height="10"/>
<rect x="1414" y="38.5" width="10" height="10"/>
<rect x="1414" y="48.5" width="10" height="10"/>
<rect x="1414" y="58.5" width="10" height="10"/>
<rect x="1414" y="68.5" width="10" height="10"/>
<rect x="1414" y="78.5" width="10" height="10"/>
<rect x="1414" y="88.5" width="10" height="10"/>
<rect x="1414" y="18.5" width="10" height="10"/>
<rect x="1414" y="8.5" width="10" height="10"/>
<rect x="1454" y="88.5" width="10" height="10"/>
<rect x="1454" y="8.5" width="10" height="10"/>
<rect x="1444" y="8.5" width="10" height="10"/>
<rect x="1434" y="8.5" width="10" height="10"/>
<rect x="1424" y="8.5" width="10" height="10"/>
<rect x="1444" y="88.5" width="10" height="10"/>
<rect x="1434" y="88.5" width="10" height="10"/>
<rect x="1424" y="88.5" width="10" height="10"/>
<rect x="1603" y="48.5" width="10" height="10"/>
<rect x="1613" y="48.5" width="10" height="10"/>
<rect x="1593" y="28.5" width="10" height="10"/>
<rect x="1593" y="38.5" width="10" height="10"/>
<rect x="1593" y="48.5" width="10" height="10"/>
<rect x="1593" y="58.5" width="10" height="10"/>
<rect x="1593" y="68.5" width="10" height="10"/>
<rect x="1593" y="78.5" width="10" height="10"/>
<rect x="1593" y="88.5" width="10" height="10"/>
<rect x="1593" y="18.5" width="10" height="10"/>
<rect x="1593" y="8.5" width="10" height="10"/>
<rect x="1633" y="88.5" width="10" height="10"/>
<rect x="1633" y="8.5" width="10" height="10"/>
<rect x="1623" y="8.5" width="10" height="10"/>
<rect x="1613" y="8.5" width="10" height="10"/>
<rect x="1603" y="8.5" width="10" height="10"/>
<rect x="1623" y="88.5" width="10" height="10"/>
<rect x="1613" y="88.5" width="10" height="10"/>
<rect x="1603" y="88.5" width="10" height="10"/>
<rect x="426" y="48.5" width="10" height="10"/>
<rect x="436" y="48.5" width="10" height="10"/>
<rect x="416" y="28.5" width="10" height="10"/>
<rect x="416" y="38.5" width="10" height="10"/>
<rect x="416" y="48.5" width="10" height="10"/>
<rect x="416" y="58.5" width="10" height="10"/>
<rect x="416" y="68.5" width="10" height="10"/>
<rect x="416" y="78.5" width="10" height="10"/>
<rect x="416" y="88.5" width="10" height="10"/>
<rect x="416" y="18.5" width="10" height="10"/>
<rect x="416" y="8.5" width="10" height="10"/>
<rect x="456" y="88.5" width="10" height="10"/>
<rect x="456" y="8.5" width="10" height="10"/>
<rect x="446" y="8.5" width="10" height="10"/>
<rect x="436" y="8.5" width="10" height="10"/>
<rect x="426" y="8.5" width="10" height="10"/>
<rect x="446" y="88.5" width="10" height="10"/>
<rect x="436" y="88.5" width="10" height="10"/>
<rect x="426" y="88.5" width="10" height="10"/>
<rect x="486" y="48.5" width="10" height="10"/>
<rect x="496" y="48.5" width="10" height="10"/>
<rect x="506" y="48.5" width="10" height="10"/>
<rect x="516" y="48.5" width="10" height="10"/>
<rect x="476" y="28.5" width="10" height="10"/>
<rect x="476" y="38.5" width="10" height="10"/>
<rect x="476" y="48.5" width="10" height="10"/>
<rect x="516" y="58.5" width="10" height="10"/>
<rect x="516" y="68.5" width="10" height="10"/>
<rect x="516" y="78.5" width="10" height="10"/>
<rect x="476" y="88.5" width="10" height="10"/>
<rect x="476" y="18.5" width="10" height="10"/>
<rect x="476" y="8.5" width="10" height="10"/>
<rect x="516" y="88.5" width="10" height="10"/>
<rect x="516" y="8.5" width="10" height="10"/>
<rect x="506" y="8.5" width="10" height="10"/>
<rect x="496" y="8.5" width="10" height="10"/>
<rect x="486" y="8.5" width="10" height="10"/>
<rect x="506" y="88.5" width="10" height="10"/>
<rect x="496" y="88.5" width="10" height="10"/>
<rect x="486" y="88.5" width="10" height="10"/>
<rect x="1663" y="38.5" width="10" height="10"/>
<rect x="1673" y="38.5" width="10" height="10"/>
<rect x="1683" y="38.5" width="10" height="10"/>
<rect x="1673" y="48.5" width="10" height="10"/>
<rect x="1683" y="58.5" width="10" height="10"/>
<rect x="1693" y="68.5" width="10" height="10"/>
<rect x="1693" y="78.5" width="10" height="10"/>
<rect x="1693" y="88.5" width="10" height="10"/>
<rect x="1693" y="38.5" width="10" height="10"/>
<rect x="1653" y="28.5" width="10" height="10"/>
<rect x="1653" y="38.5" width="10" height="10"/>
<rect x="1653" y="48.5" width="10" height="10"/>
<rect x="1653" y="58.5" width="10" height="10"/>
<rect x="1653" y="68.5" width="10" height="10"/>
<rect x="1653" y="78.5" width="10" height="10"/>
<rect x="1653" y="88.5" width="10" height="10"/>
<rect x="1653" y="18.5" width="10" height="10"/>
<rect x="1653" y="8.5" width="10" height="10"/>
<rect x="1693" y="18.5" width="10" height="10"/>
<rect x="1693" y="8.5" width="10" height="10"/>
<rect x="1683" y="8.5" width="10" height="10"/>
<rect x="1673" y="8.5" width="10" height="10"/>
<rect x="1663" y="8.5" width="10" height="10"/>
<rect x="1693" y="28.5" width="10" height="10"/>
<rect x="546" y="38.5" width="10" height="10"/>
<rect x="556" y="38.5" width="10" height="10"/>
<rect x="566" y="38.5" width="10" height="10"/>
<rect x="576" y="38.5" width="10" height="10"/>
<rect x="536" y="28.5" width="10" height="10"/>
<rect x="536" y="38.5" width="10" height="10"/>
<rect x="536" y="48.5" width="10" height="10"/>
<rect x="536" y="58.5" width="10" height="10"/>
<rect x="536" y="68.5" width="10" height="10"/>
<rect x="536" y="78.5" width="10" height="10"/>
<rect x="536" y="88.5" width="10" height="10"/>
<rect x="536" y="18.5" width="10" height="10"/>
<rect x="536" y="8.5" width="10" height="10"/>
<rect x="576" y="18.5" width="10" height="10"/>
<rect x="576" y="8.5" width="10" height="10"/>
<rect x="566" y="8.5" width="10" height="10"/>
<rect x="556" y="8.5" width="10" height="10"/>
<rect x="546" y="8.5" width="10" height="10"/>
<rect x="576" y="28.5" width="10" height="10"/>
<rect x="805" y="38.5" width="10" height="10"/>
<rect x="815" y="38.5" width="10" height="10"/>
<rect x="825" y="38.5" width="10" height="10"/>
<rect x="835" y="38.5" width="10" height="10"/>
<rect x="795" y="28.5" width="10" height="10"/>
<rect x="795" y="38.5" width="10" height="10"/>
<rect x="795" y="48.5" width="10" height="10"/>
<rect x="795" y="58.5" width="10" height="10"/>
<rect x="795" y="68.5" width="10" height="10"/>
<rect x="795" y="78.5" width="10" height="10"/>
<rect x="795" y="88.5" width="10" height="10"/>
<rect x="795" y="18.5" width="10" height="10"/>
<rect x="795" y="8.5" width="10" height="10"/>
<rect x="835" y="18.5" width="10" height="10"/>
<rect x="835" y="8.5" width="10" height="10"/>
<rect x="825" y="8.5" width="10" height="10"/>
<rect x="815" y="8.5" width="10" height="10"/>
<rect x="805" y="8.5" width="10" height="10"/>
<rect x="835" y="28.5" width="10" height="10"/>
<rect x="146" y="38.5" width="10" height="10"/>
<rect x="156" y="38.5" width="10" height="10"/>
<rect x="166" y="38.5" width="10" height="10"/>
<rect x="156" y="48.5" width="10" height="10"/>
<rect x="166" y="58.5" width="10" height="10"/>
<rect x="176" y="68.5" width="10" height="10"/>
<rect x="176" y="78.5" width="10" height="10"/>
<rect x="176" y="88.5" width="10" height="10"/>
<rect x="176" y="38.5" width="10" height="10"/>
<rect x="136" y="28.5" width="10" height="10"/>
<rect x="136" y="38.5" width="10" height="10"/>
<rect x="136" y="48.5" width="10" height="10"/>
<rect x="136" y="58.5" width="10" height="10"/>
<rect x="136" y="68.5" width="10" height="10"/>
<rect x="136" y="78.5" width="10" height="10"/>
<rect x="136" y="88.5" width="10" height="10"/>
<rect x="136" y="18.5" width="10" height="10"/>
<rect x="136" y="8.5" width="10" height="10"/>
<rect x="176" y="18.5" width="10" height="10"/>
<rect x="176" y="8.5" width="10" height="10"/>
<rect x="166" y="8.5" width="10" height="10"/>
<rect x="156" y="8.5" width="10" height="10"/>
<rect x="146" y="8.5" width="10" height="10"/>
<rect x="176" y="28.5" width="10" height="10"/>
<rect x="206" y="38.5" width="10" height="10"/>
<rect x="216" y="38.5" width="10" height="10"/>
<rect x="226" y="38.5" width="10" height="10"/>
<rect x="216" y="48.5" width="10" height="10"/>
<rect x="226" y="58.5" width="10" height="10"/>
<rect x="236" y="68.5" width="10" height="10"/>
<rect x="236" y="78.5" width="10" height="10"/>
<rect x="236" y="88.5" width="10" height="10"/>
<rect x="236" y="38.5" width="10" height="10"/>
<rect x="196" y="28.5" width="10" height="10"/>
<rect x="196" y="38.5" width="10" height="10"/>
<rect x="196" y="48.5" width="10" height="10"/>
<rect x="196" y="58.5" width="10" height="10"/>
<rect x="196" y="68.5" width="10" height="10"/>
<rect x="196" y="78.5" width="10" height="10"/>
<rect x="196" y="88.5" width="10" height="10"/>
<rect x="196" y="18.5" width="10" height="10"/>
<rect x="196" y="8.5" width="10" height="10"/>
<rect x="236" y="18.5" width="10" height="10"/>
<rect x="236" y="8.5" width="10" height="10"/>
<rect x="226" y="8.5" width="10" height="10"/>
<rect x="216" y="8.5" width="10" height="10"/>
<rect x="206" y="8.5" width="10" height="10"/>
<rect x="236" y="28.5" width="10" height="10"/>
<rect x="985" y="38.5" width="10" height="10"/>
<rect x="995" y="38.5" width="10" height="10"/>
<rect x="1005" y="38.5" width="10" height="10"/>
<rect x="995" y="48.5" width="10" height="10"/>
<rect x="1005" y="58.5" width="10" height="10"/>
<rect x="1015" y="68.5" width="10" height="10"/>
<rect x="1015" y="78.5" width="10" height="10"/>
<rect x="1015" y="88.5" width="10" height="10"/>
<rect x="1015" y="38.5" width="10" height="10"/>
<rect x="975" y="28.5" width="10" height="10"/>
<rect x="975" y="38.5" width="10" height="10"/>
<rect x="975" y="48.5" width="10" height="10"/>
<rect x="975" y="58.5" width="10" height="10"/>
<rect x="975" y="68.5" width="10" height="10"/>
<rect x="975" y="78.5" width="10" height="10"/>
<rect x="975" y="88.5" width="10" height="10"/>
<rect x="975" y="18.5" width="10" height="10"/>
<rect x="975" y="8.5" width="10" height="10"/>
<rect x="1015" y="18.5" width="10" height="10"/>
<rect x="1015" y="8.5" width="10" height="10"/>
<rect x="1005" y="8.5" width="10" height="10"/>
<rect x="995" y="8.5" width="10" height="10"/>
<rect x="985" y="8.5" width="10" height="10"/>
<rect x="1015" y="28.5" width="10" height="10"/>
<rect x="1065" y="38.5" width="10" height="10"/>
<rect x="1075" y="38.5" width="10" height="10"/>
<rect x="1085" y="38.5" width="10" height="10"/>
<rect x="1075" y="48.5" width="10" height="10"/>
<rect x="1085" y="58.5" width="10" height="10"/>
<rect x="1095" y="68.5" width="10" height="10"/>
<rect x="1095" y="78.5" width="10" height="10"/>
<rect x="1095" y="88.5" width="10" height="10"/>
<rect x="1095" y="38.5" width="10" height="10"/>
<rect x="1055" y="28.5" width="10" height="10"/>
<rect x="1055" y="38.5" width="10" height="10"/>
<rect x="1055" y="48.5" width="10" height="10"/>
<rect x="1055" y="58.5" width="10" height="10"/>
<rect x="1055" y="68.5" width="10" height="10"/>
<rect x="1055" y="78.5" width="10" height="10"/>
<rect x="1055" y="88.5" width="10" height="10"/>
<rect x="1055" y="18.5" width="10" height="10"/>
<rect x="1055" y="8.5" width="10" height="10"/>
<rect x="1095" y="18.5" width="10" height="10"/>
<rect x="1095" y="8.5" width="10" height="10"/>
<rect x="1085" y="8.5" width="10" height="10"/>
<rect x="1075" y="8.5" width="10" height="10"/>
<rect x="1065" y="8.5" width="10" height="10"/>
<rect x="1095" y="28.5" width="10" height="10"/>
<rect x="46" y="88.5" width="10" height="10"/>
<rect x="36" y="88.5" width="10" height="10"/>
<rect x="26" y="88.5" width="10" height="10"/>
<rect x="26" y="48.5" width="10" height="10"/>
<rect x="36" y="48.5" width="10" height="10"/>
<rect x="26" y="8.5" width="10" height="10"/>
<rect x="36" y="8.5" width="10" height="10"/>
<rect x="46" y="48.5" width="10" height="10"/>
<rect x="56" y="48.5" width="10" height="10"/>
<rect x="56" y="58.5" width="10" height="10"/>
<rect x="56" y="68.5" width="10" height="10"/>
<rect x="56" y="78.5" width="10" height="10"/>
<rect x="56" y="88.5" width="10" height="10"/>
<rect x="56" y="48.5" width="10" height="10"/>
<rect x="46" y="8.5" width="10" height="10"/>
<rect x="46" y="18.5" width="10" height="10"/>
<rect x="46" y="28.5" width="10" height="10"/>
<rect x="46" y="38.5" width="10" height="10"/>
<rect x="46" y="8.5" width="10" height="10"/>
<rect x="16" y="28.5" width="10" height="10"/>
<rect x="16" y="38.5" width="10" height="10"/>
<rect x="16" y="48.5" width="10" height="10"/>
<rect x="16" y="58.5" width="10" height="10"/>
<rect x="16" y="68.5" width="10" height="10"/>
<rect x="16" y="78.5" width="10" height="10"/>
<rect x="16" y="88.5" width="10" height="10"/>
<rect x="16" y="18.5" width="10" height="10"/>
<rect x="16" y="8.5" width="10" height="10"/>
<rect x="915" y="28.5" width="10" height="10"/>
<rect x="915" y="38.5" width="10" height="10"/>
<rect x="915" y="48.5" width="10" height="10"/>
<rect x="915" y="58.5" width="10" height="10"/>
<rect x="915" y="68.5" width="10" height="10"/>
<rect x="915" y="78.5" width="10" height="10"/>
<rect x="915" y="88.5" width="10" height="10"/>
<rect x="915" y="18.5" width="10" height="10"/>
<rect x="915" y="8.5" width="10" height="10"/>
<rect x="955" y="28.5" width="10" height="10"/>
<rect x="955" y="38.5" width="10" height="10"/>
<rect x="955" y="48.5" width="10" height="10"/>
<rect x="955" y="58.5" width="10" height="10"/>
<rect x="955" y="68.5" width="10" height="10"/>
<rect x="955" y="78.5" width="10" height="10"/>
<rect x="955" y="88.5" width="10" height="10"/>
<rect x="955" y="18.5" width="10" height="10"/>
<rect x="955" y="8.5" width="10" height="10"/>
<rect x="945" y="88.5" width="10" height="10"/>
<rect x="935" y="88.5" width="10" height="10"/>
<rect x="925" y="88.5" width="10" height="10"/>
</svg>
