<?xml version="1.0" encoding="utf-8"?>
<!-- Generator: Adobe Illustrator 15.0.0, SVG Export Plug-In . SVG Version: 6.00 Build 0)  -->
<!DOCTYPE svg PUBLIC "-//W3C//DTD SVG 1.1//EN" "http://www.w3.org/Graphics/SVG/1.1/DTD/svg11.dtd">
<svg version="1.1" id="Layer_1" xmlns="http://www.w3.org/2000/svg" xmlns:xlink="http://www.w3.org/1999/xlink" x="0px" y="0px"
	 width="389.5px" height="110px" viewBox="0 0 389.5 110" enable-background="new 0 0 389.5 110" xml:space="preserve">
<rect x="310" y="30" width="10" height="10"/>
<rect x="310" y="40" width="10" height="10"/>
<rect x="310" y="50" width="10" height="10"/>
<rect x="310" y="60" width="10" height="10"/>
<rect x="310" y="70" width="10" height="10"/>
<rect x="310" y="80" width="10" height="10"/>
<rect x="310" y="90" width="10" height="10"/>
<rect x="310" y="20" width="10" height="10"/>
<rect x="320" y="10" width="10" height="10"/>
<rect x="330" y="10" width="10" height="10"/>
<rect x="310" y="10" width="10" height="10"/>
<rect x="300" y="10" width="10" height="10"/>
<rect x="290" y="10" width="10" height="10"/>
<rect x="110" y="30" width="10" height="10"/>
<rect x="110" y="40" width="10" height="10"/>
<rect x="110" y="50" width="10" height="10"/>
<rect x="110" y="60" width="10" height="10"/>
<rect x="110" y="70" width="10" height="10"/>
<rect x="110" y="80" width="10" height="10"/>
<rect x="110" y="90" width="10" height="10"/>
<rect x="110" y="20" width="10" height="10"/>
<rect x="110" y="10" width="10" height="10"/>
<rect x="150" y="30" width="10" height="10"/>
<rect x="150" y="40" width="10" height="10"/>
<rect x="150" y="50" width="10" height="10"/>
<rect x="150" y="60" width="10" height="10"/>
<rect x="150" y="70" width="10" height="10"/>
<rect x="150" y="80" width="10" height="10"/>
<rect x="150" y="90" width="10" height="10"/>
<rect x="150" y="20" width="10" height="10"/>
<rect x="150" y="10" width="10" height="10"/>
<rect x="140" y="10" width="10" height="10"/>
<rect x="130" y="10" width="10" height="10"/>
<rect x="120" y="10" width="10" height="10"/>
<rect x="140" y="90" width="10" height="10"/>
<rect x="130" y="90" width="10" height="10"/>
<rect x="120" y="90" width="10" height="10"/>
<rect x="230" y="30" width="10" height="10"/>
<rect x="230" y="40" width="10" height="10"/>
<rect x="230" y="50" width="10" height="10"/>
<rect x="230" y="60" width="10" height="10"/>
<rect x="230" y="70" width="10" height="10"/>
<rect x="230" y="80" width="10" height="10"/>
<rect x="230" y="90" width="10" height="10"/>
<rect x="230" y="20" width="10" height="10"/>
<rect x="230" y="10" width="10" height="10"/>
<rect x="270" y="30" width="10" height="10"/>
<rect x="270" y="40" width="10" height="10"/>
<rect x="270" y="50" width="10" height="10"/>
<rect x="270" y="60" width="10" height="10"/>
<rect x="270" y="70" width="10" height="10"/>
<rect x="270" y="80" width="10" height="10"/>
<rect x="270" y="90" width="10" height="10"/>
<rect x="270" y="20" width="10" height="10"/>
<rect x="270" y="10" width="10" height="10"/>
<rect x="260" y="10" width="10" height="10"/>
<rect x="250" y="10" width="10" height="10"/>
<rect x="240" y="10" width="10" height="10"/>
<rect x="260" y="90" width="10" height="10"/>
<rect x="250" y="90" width="10" height="10"/>
<rect x="240" y="90" width="10" height="10"/>
<rect x="200" y="90" width="10" height="10"/>
<rect x="190" y="90" width="10" height="10"/>
<rect x="180" y="90" width="10" height="10"/>
<rect x="60" y="40" width="10" height="10"/>
<rect x="70" y="40" width="10" height="10"/>
<rect x="80" y="40" width="10" height="10"/>
<rect x="70" y="50" width="10" height="10"/>
<rect x="80" y="60" width="10" height="10"/>
<rect x="90" y="70" width="10" height="10"/>
<rect x="90" y="80" width="10" height="10"/>
<rect x="90" y="90" width="10" height="10"/>
<rect x="90" y="40" width="10" height="10"/>
<rect x="50" y="30" width="10" height="10"/>
<rect x="50" y="40" width="10" height="10"/>
<rect x="50" y="50" width="10" height="10"/>
<rect x="50" y="60" width="10" height="10"/>
<rect x="50" y="70" width="10" height="10"/>
<rect x="50" y="80" width="10" height="10"/>
<rect x="50" y="90" width="10" height="10"/>
<rect x="50" y="20" width="10" height="10"/>
<rect x="50" y="10" width="10" height="10"/>
<rect x="90" y="20" width="10" height="10"/>
<rect x="90" y="10" width="10" height="10"/>
<rect x="80" y="10" width="10" height="10"/>
<rect x="70" y="10" width="10" height="10"/>
<rect x="60" y="10" width="10" height="10"/>
<rect x="90" y="30" width="10" height="10"/>
<rect x="180" y="50" width="10" height="10"/>
<rect x="190" y="50" width="10" height="10"/>
<rect x="180" y="10" width="10" height="10"/>
<rect x="190" y="10" width="10" height="10"/>
<rect x="200" y="50" width="10" height="10"/>
<rect x="210" y="50" width="10" height="10"/>
<rect x="210" y="60" width="10" height="10"/>
<rect x="210" y="70" width="10" height="10"/>
<rect x="210" y="80" width="10" height="10"/>
<rect x="210" y="90" width="10" height="10"/>
<rect x="210" y="50" width="10" height="10"/>
<rect x="200" y="10" width="10" height="10"/>
<rect x="200" y="20" width="10" height="10"/>
<rect x="200" y="30" width="10" height="10"/>
<rect x="200" y="40" width="10" height="10"/>
<rect x="200" y="10" width="10" height="10"/>
<rect x="170" y="30" width="10" height="10"/>
<rect x="170" y="40" width="10" height="10"/>
<rect x="170" y="50" width="10" height="10"/>
<rect x="170" y="60" width="10" height="10"/>
<rect x="170" y="70" width="10" height="10"/>
<rect x="170" y="80" width="10" height="10"/>
<rect x="170" y="90" width="10" height="10"/>
<rect x="170" y="20" width="10" height="10"/>
<rect x="170" y="10" width="10" height="10"/>
</svg>
