<?xml version="1.0" encoding="utf-8"?>
<!-- Generator: Adobe Illustrator 15.0.0, SVG Export Plug-In . SVG Version: 6.00 Build 0)  -->
<!DOCTYPE svg PUBLIC "-//W3C//DTD SVG 1.1//EN" "http://www.w3.org/Graphics/SVG/1.1/DTD/svg11.dtd">
<svg version="1.1" id="Layer_1" xmlns="http://www.w3.org/2000/svg" xmlns:xlink="http://www.w3.org/1999/xlink" x="0px" y="0px"
	 width="702.381px" height="998.254px" viewBox="0 0 702.381 998.254" enable-background="new 0 0 702.381 998.254"
	 xml:space="preserve">
<g>
	<g>
		<rect x="52.381" y="450" stroke="#000000" stroke-miterlimit="10" width="50" height="50"/>
		<rect x="52.381" y="400" stroke="#000000" stroke-miterlimit="10" width="50" height="50"/>
		<rect x="52.381" y="350" stroke="#000000" stroke-miterlimit="10" width="50" height="50"/>
		<rect x="52.381" y="300" stroke="#000000" stroke-miterlimit="10" width="50" height="50"/>
		<rect x="52.381" y="250" stroke="#000000" stroke-miterlimit="10" width="50" height="50"/>
		<rect x="152.381" y="200" stroke="#000000" stroke-miterlimit="10" width="50" height="50"/>
		<rect x="102.381" y="200" stroke="#000000" stroke-miterlimit="10" width="50" height="50"/>
		<rect x="202.381" y="300" stroke="#000000" stroke-miterlimit="10" width="50" height="50"/>
		<rect x="202.381" y="250" stroke="#000000" stroke-miterlimit="10" width="50" height="50"/>
		<rect x="202.381" y="200" stroke="#000000" stroke-miterlimit="10" width="50" height="50"/>
		<rect x="202.381" y="350" stroke="#000000" stroke-miterlimit="10" width="50" height="50"/>
		<rect x="202.381" y="400" stroke="#000000" stroke-miterlimit="10" width="50" height="50"/>
		<rect x="152.381" y="450" stroke="#000000" stroke-miterlimit="10" width="50" height="50"/>
		<rect x="102.381" y="450" stroke="#000000" stroke-miterlimit="10" width="50" height="50"/>
		<rect x="302.381" y="450" stroke="#000000" stroke-miterlimit="10" width="50" height="50"/>
		<rect x="302.381" y="150" stroke="#000000" stroke-miterlimit="10" width="50" height="50"/>
		<rect x="252.381" y="150" stroke="#000000" stroke-miterlimit="10" width="50" height="50"/>
		<rect x="352.381" y="300" stroke="#000000" stroke-miterlimit="10" width="50" height="50"/>
		<rect x="352.381" y="250" stroke="#000000" stroke-miterlimit="10" width="50" height="50"/>
		<rect x="352.381" y="200" stroke="#000000" stroke-miterlimit="10" width="50" height="50"/>
		<rect x="352.381" y="350" stroke="#000000" stroke-miterlimit="10" width="50" height="50"/>
		<rect x="352.381" y="400" stroke="#000000" stroke-miterlimit="10" width="50" height="50"/>
		<rect x="352.381" y="450" stroke="#000000" stroke-miterlimit="10" width="50" height="50"/>
		<rect x="452.381" y="200" stroke="#000000" stroke-miterlimit="10" width="50" height="50"/>
		<rect x="402.381" y="200" stroke="#000000" stroke-miterlimit="10" width="50" height="50"/>
		<rect x="502.381" y="300" stroke="#000000" stroke-miterlimit="10" width="50" height="50"/>
		<rect x="502.381" y="250" stroke="#000000" stroke-miterlimit="10" width="50" height="50"/>
		<rect x="502.381" y="350" stroke="#000000" stroke-miterlimit="10" width="50" height="50"/>
		<rect x="502.381" y="400" stroke="#000000" stroke-miterlimit="10" width="50" height="50"/>
		<rect x="452.381" y="450" stroke="#000000" stroke-miterlimit="10" width="50" height="50"/>
		<rect x="402.381" y="450" stroke="#000000" stroke-miterlimit="10" width="50" height="50"/>
		<rect x="552.381" y="450" stroke="#000000" stroke-miterlimit="10" width="50" height="50"/>
		<rect x="602.381" y="450" stroke="#000000" stroke-miterlimit="10" width="50" height="50"/>
		<rect x="602.381" y="250" stroke="#000000" stroke-miterlimit="10" width="50" height="50"/>
		<rect x="552.381" y="250" stroke="#000000" stroke-miterlimit="10" width="50" height="50"/>
		<rect x="652.381" y="300" stroke="#000000" stroke-miterlimit="10" width="50" height="50"/>
		<rect x="652.381" y="350" stroke="#000000" stroke-miterlimit="10" width="50" height="50"/>
		<rect x="652.381" y="400" stroke="#000000" stroke-miterlimit="10" width="50" height="50"/>
		<rect x="652.381" y="450" stroke="#000000" stroke-miterlimit="10" width="50" height="50"/>
		<rect x="602.381" y="700" stroke="#000000" stroke-miterlimit="10" width="50" height="50"/>
		<rect x="602.381" y="650" stroke="#000000" stroke-miterlimit="10" width="50" height="50"/>
		<rect x="602.381" y="600" stroke="#000000" stroke-miterlimit="10" width="50" height="50"/>
		<rect x="602.381" y="500" stroke="#000000" stroke-width="1.7321" stroke-miterlimit="10" width="50" height="150"/>
		<rect x="2.381" y="450" stroke="#000000" stroke-miterlimit="10" width="50" height="50"/>
		<rect x="2.381" y="500" stroke="#000000" stroke-width="1.4142" stroke-miterlimit="10" width="50" height="100"/>
		<rect x="52.381" y="450" stroke="#000000" stroke-miterlimit="10" width="50" height="50"/>
		<rect x="102.381" y="450" stroke="#000000" stroke-miterlimit="10" width="50" height="50"/>
		<rect x="152.381" y="450" stroke="#000000" stroke-miterlimit="10" width="50" height="50"/>
		<rect x="202.381" y="450" stroke="#000000" stroke-miterlimit="10" width="50" height="50"/>
		<rect x="2.381" y="560" stroke="#000000" stroke-miterlimit="10" width="50" height="50"/>
		<rect x="2.381" y="600" stroke="#000000" stroke-miterlimit="10" width="50" height="50"/>
		<rect x="2.381" y="700" stroke="#000000" stroke-miterlimit="10" width="50" height="50"/>
		<rect x="2.381" y="650" stroke="#000000" stroke-miterlimit="10" width="50" height="50"/>
		<rect x="52.381" y="700" stroke="#000000" stroke-miterlimit="10" width="50" height="50"/>
		<rect x="102.381" y="800" stroke="#000000" stroke-miterlimit="10" width="50" height="50"/>
		<rect x="152.381" y="800" stroke="#000000" stroke-miterlimit="10" width="50" height="50"/>
		<rect x="102.381" y="750" stroke="#000000" stroke-miterlimit="10" width="50" height="50"/>
		<rect x="252.381" y="450" stroke="#000000" stroke-miterlimit="10" width="50" height="50"/>
		<rect x="252.381" y="500" stroke="#000000" stroke-miterlimit="10" width="50" height="50"/>
		<rect x="252.381" y="550" stroke="#000000" stroke-miterlimit="10" width="50" height="50"/>
		<rect x="552.381" y="750" stroke="#000000" stroke-miterlimit="10" width="50" height="50"/>
		<rect x="552.381" y="800" stroke="#000000" stroke-miterlimit="10" width="50" height="50"/>
		<rect x="552.381" y="850" stroke="#000000" stroke-miterlimit="10" width="50" height="50"/>
		<rect x="552.381" y="900" stroke="#000000" stroke-miterlimit="10" width="50" height="50"/>
		<rect x="552.381" y="950" stroke="#000000" stroke-miterlimit="10" width="50" height="50"/>
		<rect x="202.381" y="850" stroke="#000000" stroke-miterlimit="10" width="50" height="50"/>
		<rect x="202.381" y="900" stroke="#000000" stroke-miterlimit="10" width="50" height="50"/>
		<rect x="202.381" y="950" stroke="#000000" stroke-miterlimit="10" width="50" height="50"/>
		<rect x="202.381" y="550" stroke="#000000" stroke-miterlimit="10" width="50" height="50"/>
		<rect x="152.381" y="550" stroke="#000000" stroke-miterlimit="10" width="50" height="50"/>
	</g>
	<rect x="102.381" y="250" fill="#FFFFFF" width="50" height="50"/>
	<rect x="152.381" y="250" fill="#FFFFFF" width="50" height="50"/>
	<rect x="152.381" y="300" fill="#FFFFFF" width="50" height="50"/>
	<rect x="102.381" y="300" fill="#FFFFFF" width="50" height="50"/>
	<rect x="102.381" y="350" fill="#FFFFFF" width="50" height="50"/>
	<rect x="102.381" y="400" fill="#FFFFFF" width="50" height="50"/>
	<rect x="152.381" y="400" fill="#FFFFFF" width="50" height="50"/>
	<rect x="152.381" y="500" fill="#FFFFFF" width="50" height="50"/>
	<rect x="202.381" y="500" fill="#FFFFFF" width="50" height="50"/>
	<rect x="152.381" y="350" fill="#FFFFFF" width="50" height="50"/>
	<rect x="252.381" y="250" fill="#FFFFFF" width="50" height="50"/>
	<rect x="302.381" y="250" fill="#FFFFFF" width="50" height="50"/>
	<rect x="252.381" y="200" fill="#FFFFFF" width="50" height="50"/>
	<rect x="302.381" y="200" fill="#FFFFFF" width="50" height="50"/>
	<rect x="302.381" y="300" fill="#FFFFFF" width="50" height="50"/>
	<rect x="252.381" y="300" fill="#FFFFFF" width="50" height="50"/>
	<rect x="252.381" y="350" fill="#FFFFFF" width="50" height="50"/>
	<rect x="252.381" y="400" fill="#FFFFFF" width="50" height="50"/>
	<rect x="302.381" y="400" fill="#FFFFFF" width="50" height="50"/>
	<rect x="302.381" y="350" fill="#FFFFFF" width="50" height="50"/>
	<rect x="402.381" y="250" fill="#FFFFFF" width="50" height="50"/>
	<rect x="452.381" y="250" fill="#FFFFFF" width="50" height="50"/>
	<rect x="452.381" y="300" fill="#FFFFFF" width="50" height="50"/>
	<rect x="402.381" y="300" fill="#FFFFFF" width="50" height="50"/>
	<rect x="402.381" y="350" fill="#FFFFFF" width="50" height="50"/>
	<rect x="402.381" y="400" fill="#FFFFFF" width="50" height="50"/>
	<rect x="452.381" y="400" fill="#FFFFFF" width="50" height="50"/>
	<rect x="452.381" y="350" fill="#FFFFFF" width="50" height="50"/>
	<rect x="252.381" y="800" fill="#FFFFFF" width="50" height="50"/>
	<rect x="302.381" y="800" fill="#FFFFFF" width="50" height="50"/>
	<rect x="302.381" y="850" fill="#FFFFFF" width="50" height="50"/>
	<rect x="252.381" y="850" fill="#FFFFFF" width="50" height="50"/>
	<rect x="252.381" y="900" fill="#FFFFFF" width="50" height="50"/>
	<rect x="252.381" y="950" fill="#FFFFFF" width="50" height="50"/>
	<rect x="302.381" y="950" fill="#FFFFFF" width="50" height="50"/>
	<rect x="302.381" y="900" fill="#FFFFFF" width="50" height="50"/>
	<rect x="352.381" y="800" fill="#FFFFFF" width="50" height="50"/>
	<rect x="402.381" y="800" fill="#FFFFFF" width="50" height="50"/>
	<rect x="402.381" y="850" fill="#FFFFFF" width="50" height="50"/>
	<rect x="352.381" y="850" fill="#FFFFFF" width="50" height="50"/>
	<rect x="352.381" y="900" fill="#FFFFFF" width="50" height="50"/>
	<rect x="352.381" y="950" fill="#FFFFFF" width="50" height="50"/>
	<rect x="402.381" y="950" fill="#FFFFFF" width="50" height="50"/>
	<rect x="402.381" y="900" fill="#FFFFFF" width="50" height="50"/>
	<rect x="452.381" y="800" fill="#FFFFFF" width="50" height="50"/>
	<rect x="502.381" y="800" fill="#FFFFFF" width="50" height="50"/>
	<rect x="502.381" y="850" fill="#FFFFFF" width="50" height="50"/>
	<rect x="452.381" y="850" fill="#FFFFFF" width="50" height="50"/>
	<rect x="452.381" y="900" fill="#FFFFFF" width="50" height="50"/>
	<rect x="452.381" y="950" fill="#FFFFFF" width="50" height="50"/>
	<rect x="502.381" y="950" fill="#FFFFFF" width="50" height="50"/>
	<rect x="502.381" y="900" fill="#FFFFFF" width="50" height="50"/>
	<rect x="302.381" y="500" fill="#FFFFFF" width="50" height="50"/>
	<rect x="352.381" y="500" fill="#FFFFFF" width="50" height="50"/>
	<rect x="352.381" y="550" fill="#FFFFFF" width="50" height="50"/>
	<rect x="302.381" y="550" fill="#FFFFFF" width="50" height="50"/>
	<rect x="302.381" y="600" fill="#FFFFFF" width="50" height="50"/>
	<rect x="302.381" y="650" fill="#FFFFFF" width="50" height="50"/>
	<rect x="352.381" y="650" fill="#FFFFFF" width="50" height="50"/>
	<rect x="352.381" y="600" fill="#FFFFFF" width="50" height="50"/>
	<rect x="402.381" y="500" fill="#FFFFFF" width="50" height="50"/>
	<rect x="452.381" y="500" fill="#FFFFFF" width="50" height="50"/>
	<rect x="452.381" y="550" fill="#FFFFFF" width="50" height="50"/>
	<rect x="402.381" y="550" fill="#FFFFFF" width="50" height="50"/>
	<rect x="402.381" y="600" fill="#FFFFFF" width="50" height="50"/>
	<rect x="402.381" y="650" fill="#FFFFFF" width="50" height="50"/>
	<rect x="452.381" y="650" fill="#FFFFFF" width="50" height="50"/>
	<rect x="452.381" y="600" fill="#FFFFFF" width="50" height="50"/>
	<rect x="502.381" y="500" fill="#FFFFFF" width="50" height="50"/>
	<rect x="502.381" y="450" fill="#FFFFFF" width="50" height="50"/>
	<rect x="552.381" y="500" fill="#FFFFFF" width="50" height="50"/>
	<rect x="552.381" y="550" fill="#FFFFFF" width="50" height="50"/>
	<rect x="502.381" y="550" fill="#FFFFFF" width="50" height="50"/>
	<rect x="502.381" y="600" fill="#FFFFFF" width="50" height="50"/>
	<rect x="502.381" y="650" fill="#FFFFFF" width="50" height="50"/>
	<rect x="552.381" y="650" fill="#FFFFFF" width="50" height="50"/>
	<rect x="302.381" y="700" fill="#FFFFFF" width="50" height="50"/>
	<rect x="352.381" y="700" fill="#FFFFFF" width="50" height="50"/>
	<rect x="402.381" y="700" fill="#FFFFFF" width="50" height="50"/>
	<rect x="452.381" y="700" fill="#FFFFFF" width="50" height="50"/>
	<rect x="102.381" y="600" fill="#FFFFFF" width="50" height="50"/>
	<rect x="102.381" y="650" fill="#FFFFFF" width="50" height="50"/>
	<rect x="52.381" y="600" fill="#FFFFFF" width="50" height="50"/>
	<rect x="52.381" y="650" fill="#FFFFFF" width="50" height="50"/>
	<rect x="102.381" y="500" fill="#FFFFFF" width="50" height="50"/>
	<rect x="102.381" y="550" fill="#FFFFFF" width="50" height="50"/>
	<rect x="52.381" y="500" fill="#FFFFFF" width="50" height="50"/>
	<rect x="52.381" y="550" fill="#FFFFFF" width="50" height="50"/>
	<rect x="152.381" y="650" fill="#FFFFFF" width="50" height="50"/>
	<rect x="152.381" y="600" fill="#FFFFFF" width="50" height="50"/>
	<rect x="202.381" y="600" fill="#FFFFFF" width="50" height="50"/>
	<rect x="202.381" y="650" fill="#FFFFFF" width="50" height="50"/>
	<rect x="252.381" y="650" fill="#FFFFFF" width="50" height="50"/>
	<rect x="252.381" y="600" fill="#FFFFFF" width="50" height="50"/>
	<rect x="102.381" y="700" fill="#FFFFFF" width="50" height="50"/>
	<rect x="152.381" y="700" fill="#FFFFFF" width="50" height="50"/>
	<rect x="152.381" y="750" fill="#FFFFFF" width="50" height="50"/>
	<rect x="202.381" y="700" fill="#FFFFFF" width="50" height="50"/>
	<rect x="252.381" y="700" fill="#FFFFFF" width="50" height="50"/>
	<rect x="502.381" y="700" fill="#FFFFFF" width="50" height="50"/>
	<rect x="552.381" y="700" fill="#FFFFFF" width="50" height="50"/>
	<rect x="252.381" y="750" fill="#FFFFFF" width="50" height="50"/>
	<rect x="202.381" y="800" fill="#FFFFFF" width="50" height="50"/>
	<rect x="202.381" y="750" fill="#FFFFFF" width="50" height="50"/>
	<rect x="302.381" y="750" fill="#FFFFFF" width="50" height="50"/>
	<rect x="352.381" y="750" fill="#FFFFFF" width="50" height="50"/>
	<rect x="402.381" y="750" fill="#FFFFFF" width="50" height="50"/>
	<rect x="452.381" y="750" fill="#FFFFFF" width="50" height="50"/>
	<rect x="502.381" y="750" fill="#FFFFFF" width="50" height="50"/>
	<rect x="552.381" y="600" fill="#FFFFFF" width="50" height="50"/>
	<rect x="552.381" y="300" fill="#FFFFFF" width="50" height="50"/>
	<rect x="602.381" y="300" fill="#FFFFFF" width="50" height="50"/>
	<rect x="602.381" y="350" fill="#FFFFFF" width="50" height="50"/>
	<rect x="552.381" y="350" fill="#FFFFFF" width="50" height="50"/>
	<rect x="552.381" y="400" fill="#FFFFFF" width="50" height="50"/>
	<rect x="602.381" y="400" fill="#FFFFFF" width="50" height="50"/>
</g>
</svg>
