<?xml version="1.0" encoding="utf-8"?>
<!-- Generator: Adobe Illustrator 15.0.0, SVG Export Plug-In . SVG Version: 6.00 Build 0)  -->
<!DOCTYPE svg PUBLIC "-//W3C//DTD SVG 1.1//EN" "http://www.w3.org/Graphics/SVG/1.1/DTD/svg11.dtd">
<svg version="1.1" id="Layer_1" xmlns="http://www.w3.org/2000/svg" xmlns:xlink="http://www.w3.org/1999/xlink" x="0px" y="0px"
	 width="680px" height="520px" viewBox="0 0 680 520" enable-background="new 0 0 680 520" xml:space="preserve">
<g>
	<rect x="240" y="320" fill="#F1C719" width="40" height="40"/>
	<rect x="240" y="360" fill="#F1C719" width="40" height="40"/>
	<rect x="280" y="320" fill="#F1C719" width="40" height="40"/>
	<rect x="160" y="440" fill="#F1C719" width="40" height="40"/>
	<rect x="200" y="440" fill="#F1C719" width="40" height="40"/>
	<rect x="240" y="440" fill="#F1C719" width="40" height="40"/>
	<rect x="280" y="440" fill="#F1C719" width="40" height="40"/>
	<rect x="320" y="440" fill="#F1C719" width="40" height="40"/>
	<rect x="360" y="440" fill="#F1C719" width="40" height="40"/>
	<rect x="400" y="440" fill="#F1C719" width="40" height="40"/>
	<rect x="440" y="440" fill="#F1C719" width="40" height="40"/>
	<rect x="480" y="440" fill="#F1C719" width="40" height="40"/>
	<rect x="280" y="360" fill="#F1C719" width="40" height="40"/>
	<rect x="320" y="320" fill="#F1C719" width="40" height="40"/>
	<rect x="320" y="360" fill="#F1C719" width="40" height="40"/>
	<rect x="120" y="320" fill="#F1C719" width="40" height="40"/>
	<rect x="120" y="280" fill="#F1C719" width="40" height="40"/>
	<rect x="80" y="280" fill="#F1C719" width="40" height="40"/>
	<rect x="80" y="240" fill="#F1C719" width="40" height="40"/>
	<rect x="120" y="360" fill="#F1C719" width="40" height="40"/>
	<rect x="160" y="320" fill="#F1C719" width="40" height="40"/>
	<rect x="160" y="360" fill="#F1C719" width="40" height="40"/>
	<rect x="200" y="320" fill="#F1C719" width="40" height="40"/>
	<rect x="200" y="360" fill="#F1C719" width="40" height="40"/>
	<rect x="360" y="320" fill="#F1C719" width="40" height="40"/>
	<rect x="360" y="360" fill="#F1C719" width="40" height="40"/>
	<rect x="400" y="320" fill="#F1C719" width="40" height="40"/>
	<rect x="400" y="360" fill="#F1C719" width="40" height="40"/>
	<rect x="440" y="320" fill="#F1C719" width="40" height="40"/>
	<rect x="240" y="280" fill="#F1C719" width="40" height="40"/>
	<rect x="280" y="280" fill="#F1C719" width="40" height="40"/>
	<rect x="320" y="280" fill="#F1C719" width="40" height="40"/>
	<rect x="200" y="280" fill="#F1C719" width="40" height="40"/>
	<rect x="360" y="280" fill="#F1C719" width="40" height="40"/>
	<rect x="400" y="280" fill="#F1C719" width="40" height="40"/>
	<rect x="240" y="240" fill="#F1C719" width="40" height="40"/>
	<rect x="280" y="240" fill="#F1C719" width="40" height="40"/>
	<rect x="320" y="240" fill="#F1C719" width="40" height="40"/>
	<rect x="360" y="240" fill="#F1C719" width="40" height="40"/>
	<rect x="400" y="240" fill="#F1C719" width="40" height="40"/>
	<rect x="240" y="200" fill="#F1C719" width="40" height="40"/>
	<rect x="280" y="200" fill="#F1C719" width="40" height="40"/>
	<rect x="320" y="200" fill="#F1C719" width="40" height="40"/>
	<rect x="360" y="200" fill="#F1C719" width="40" height="40"/>
	<rect x="280" y="160" fill="#F1C719" width="40" height="40"/>
	<rect x="320" y="160" fill="#F1C719" width="40" height="40"/>
	<rect x="360" y="160" fill="#F1C719" width="40" height="40"/>
	<rect x="280" y="120" fill="#F1C719" width="40" height="40"/>
	<rect x="320" y="120" fill="#F1C719" width="40" height="40"/>
	<rect x="320" y="80" fill="#F1C719" width="40" height="40"/>
	<rect x="360" y="120" fill="#F1C719" width="40" height="40"/>
	<rect x="400" y="200" fill="#F1C719" width="40" height="40"/>
	<rect x="440" y="280" fill="#F1C719" width="40" height="40"/>
	<rect x="440" y="360" fill="#F1C719" width="40" height="40"/>
	<rect x="480" y="320" fill="#F1C719" width="40" height="40"/>
	<rect x="480" y="360" fill="#F1C719" width="40" height="40"/>
	<rect x="520" y="320" fill="#F1C719" width="40" height="40"/>
	<rect x="520" y="280" fill="#F1C719" width="40" height="40"/>
	<rect x="560" y="280" fill="#F1C719" width="40" height="40"/>
	<rect x="560" y="240" fill="#F1C719" width="40" height="40"/>
	<rect x="520" y="360" fill="#F1C719" width="40" height="40"/>
</g>
<g>
	<rect x="120" y="480" fill="#BE832B" width="40" height="40"/>
	<rect x="120" y="440" fill="#BE832B" width="40" height="40"/>
	<rect x="160" y="480" fill="#BE832B" width="40" height="40"/>
	<rect x="200" y="480" fill="#BE832B" width="40" height="40"/>
	<rect x="240" y="480" fill="#BE832B" width="40" height="40"/>
	<rect x="280" y="480" fill="#BE832B" width="40" height="40"/>
	<rect x="320" y="480" fill="#BE832B" width="40" height="40"/>
	<rect x="360" y="480" fill="#BE832B" width="40" height="40"/>
	<rect x="400" y="480" fill="#BE832B" width="40" height="40"/>
	<rect x="440" y="480" fill="#BE832B" width="40" height="40"/>
	<rect x="480" y="480" fill="#BE832B" width="40" height="40"/>
	<rect x="520" y="480" fill="#BE832B" width="40" height="40"/>
	<rect x="520" y="440" fill="#BE832B" width="40" height="40"/>
	<rect x="120" y="400" fill="#BE832B" width="40" height="40"/>
	<rect x="80" y="360" fill="#BE832B" width="40" height="40"/>
	<rect x="80" y="320" fill="#BE832B" width="40" height="40"/>
	<rect x="560" y="360" fill="#BE832B" width="40" height="40"/>
	<rect x="560" y="320" fill="#BE832B" width="40" height="40"/>
	<rect x="40" y="280" fill="#BE832B" width="40" height="40"/>
	<rect x="40" y="240" fill="#BE832B" width="40" height="40"/>
	<rect x="40" y="200" fill="#BE832B" width="40" height="40"/>
	<rect x="600" y="280" fill="#BE832B" width="40" height="40"/>
	<rect x="600" y="240" fill="#BE832B" width="40" height="40"/>
	<rect x="600" y="200" fill="#BE832B" width="40" height="40"/>
	<rect x="160" y="280" fill="#BE832B" width="40" height="40"/>
	<rect x="480" y="280" fill="#BE832B" width="40" height="40"/>
	<rect x="200" y="240" fill="#BE832B" width="40" height="40"/>
	<rect x="200" y="200" fill="#BE832B" width="40" height="40"/>
	<rect x="440" y="240" fill="#BE832B" width="40" height="40"/>
	<rect x="440" y="200" fill="#BE832B" width="40" height="40"/>
	<rect x="240" y="160" fill="#BE832B" width="40" height="40"/>
	<rect x="240" y="120" fill="#BE832B" width="40" height="40"/>
	<rect x="400" y="160" fill="#BE832B" width="40" height="40"/>
	<rect x="400" y="120" fill="#BE832B" width="40" height="40"/>
	<rect x="280" y="80" fill="#BE832B" width="40" height="40"/>
	<rect x="320" y="40" fill="#BE832B" width="40" height="40"/>
	<rect x="360" y="80" fill="#BE832B" width="40" height="40"/>
	<rect x="120" y="240" fill="#BE832B" width="40" height="40"/>
	<rect x="520" y="240" fill="#BE832B" width="40" height="40"/>
	<rect x="560" y="200" fill="#BE832B" width="40" height="40"/>
	<rect x="80" y="200" fill="#BE832B" width="40" height="40"/>
	<rect x="160" y="400" fill="#BE832B" width="40" height="40"/>
	<rect x="200" y="400" fill="#BE832B" width="40" height="40"/>
	<rect x="240" y="400" fill="#BE832B" width="40" height="40"/>
	<rect x="280" y="400" fill="#BE832B" width="40" height="40"/>
	<rect x="320" y="400" fill="#BE832B" width="40" height="40"/>
	<rect x="360" y="400" fill="#BE832B" width="40" height="40"/>
	<rect x="400" y="400" fill="#BE832B" width="40" height="40"/>
	<rect x="440" y="400" fill="#BE832B" width="40" height="40"/>
	<rect x="480" y="400" fill="#BE832B" width="40" height="40"/>
	<rect x="520" y="400" fill="#BE832B" width="40" height="40"/>
</g>
<rect y="160" fill="#F1C719" width="40" height="40"/>
<rect x="320" fill="#F1C719" width="40" height="40"/>
<rect x="640" y="160" fill="#F1C719" width="40" height="40"/>
</svg>
