<?xml version="1.0" encoding="utf-8"?>
<!-- Generator: Adobe Illustrator 15.0.0, SVG Export Plug-In . SVG Version: 6.00 Build 0)  -->
<!DOCTYPE svg PUBLIC "-//W3C//DTD SVG 1.1//EN" "http://www.w3.org/Graphics/SVG/1.1/DTD/svg11.dtd">
<svg version="1.1" id="Layer_1" xmlns="http://www.w3.org/2000/svg" xmlns:xlink="http://www.w3.org/1999/xlink" x="0px" y="0px"
	 width="389.5px" height="110px" viewBox="0 0 389.5 110" enable-background="new 0 0 389.5 110" xml:space="preserve">
<rect x="48.846" y="28.461" width="10" height="10"/>
<rect x="48.846" y="38.461" width="10" height="10"/>
<rect x="48.846" y="48.461" width="10" height="10"/>
<rect x="48.846" y="58.461" width="10" height="10"/>
<rect x="48.846" y="68.461" width="10" height="10"/>
<rect x="48.846" y="78.461" width="10" height="10"/>
<rect x="38.846" y="88.461" width="10" height="10"/>
<rect x="48.846" y="88.461" width="10" height="10"/>
<rect x="18.846" y="88.461" width="10" height="10"/>
<rect x="28.846" y="88.461" width="10" height="10"/>
<rect x="8.846" y="88.461" width="10" height="10"/>
<rect x="48.846" y="18.461" width="10" height="10"/>
<rect x="58.846" y="8.461" width="10" height="10"/>
<rect x="88.846" y="28.461" width="10" height="10"/>
<rect x="88.846" y="38.461" width="10" height="10"/>
<rect x="88.846" y="48.461" width="10" height="10"/>
<rect x="88.846" y="58.461" width="10" height="10"/>
<rect x="88.846" y="68.461" width="10" height="10"/>
<rect x="88.846" y="78.461" width="10" height="10"/>
<rect x="88.846" y="88.461" width="10" height="10"/>
<rect x="88.846" y="18.461" width="10" height="10"/>
<rect x="88.846" y="8.461" width="10" height="10"/>
<rect x="128.846" y="28.461" width="10" height="10"/>
<rect x="128.846" y="38.461" width="10" height="10"/>
<rect x="128.846" y="48.461" width="10" height="10"/>
<rect x="128.846" y="58.461" width="10" height="10"/>
<rect x="128.846" y="68.461" width="10" height="10"/>
<rect x="128.846" y="78.461" width="10" height="10"/>
<rect x="128.846" y="88.461" width="10" height="10"/>
<rect x="128.846" y="18.461" width="10" height="10"/>
<rect x="128.846" y="8.461" width="10" height="10"/>
<rect x="68.846" y="8.461" width="10" height="10"/>
<rect x="218.846" y="48.461" width="10" height="10"/>
<rect x="228.846" y="48.461" width="10" height="10"/>
<rect x="48.846" y="8.461" width="10" height="10"/>
<rect x="38.846" y="8.461" width="10" height="10"/>
<rect x="28.846" y="8.461" width="10" height="10"/>
<rect x="118.846" y="8.461" width="10" height="10"/>
<rect x="108.846" y="8.461" width="10" height="10"/>
<rect x="98.846" y="8.461" width="10" height="10"/>
<rect x="118.846" y="88.461" width="10" height="10"/>
<rect x="108.846" y="88.461" width="10" height="10"/>
<rect x="98.846" y="88.461" width="10" height="10"/>
<rect x="208.846" y="28.461" width="10" height="10"/>
<rect x="208.846" y="38.461" width="10" height="10"/>
<rect x="208.846" y="48.461" width="10" height="10"/>
<rect x="208.846" y="58.461" width="10" height="10"/>
<rect x="208.846" y="68.461" width="10" height="10"/>
<rect x="208.846" y="78.461" width="10" height="10"/>
<rect x="208.846" y="88.461" width="10" height="10"/>
<rect x="208.846" y="18.461" width="10" height="10"/>
<rect x="208.846" y="8.461" width="10" height="10"/>
<rect x="248.846" y="88.461" width="10" height="10"/>
<rect x="248.846" y="8.461" width="10" height="10"/>
<rect x="238.846" y="8.461" width="10" height="10"/>
<rect x="228.846" y="8.461" width="10" height="10"/>
<rect x="218.846" y="8.461" width="10" height="10"/>
<rect x="238.846" y="88.461" width="10" height="10"/>
<rect x="228.846" y="88.461" width="10" height="10"/>
<rect x="218.846" y="88.461" width="10" height="10"/>
<rect x="338.846" y="38.461" width="10" height="10"/>
<rect x="348.846" y="38.461" width="10" height="10"/>
<rect x="358.846" y="38.461" width="10" height="10"/>
<rect x="348.846" y="48.461" width="10" height="10"/>
<rect x="358.846" y="58.461" width="10" height="10"/>
<rect x="368.846" y="68.461" width="10" height="10"/>
<rect x="368.846" y="78.461" width="10" height="10"/>
<rect x="368.846" y="88.461" width="10" height="10"/>
<rect x="368.846" y="38.461" width="10" height="10"/>
<rect x="328.846" y="28.461" width="10" height="10"/>
<rect x="328.846" y="38.461" width="10" height="10"/>
<rect x="328.846" y="48.461" width="10" height="10"/>
<rect x="328.846" y="58.461" width="10" height="10"/>
<rect x="328.846" y="68.461" width="10" height="10"/>
<rect x="328.846" y="78.461" width="10" height="10"/>
<rect x="328.846" y="88.461" width="10" height="10"/>
<rect x="328.846" y="18.461" width="10" height="10"/>
<rect x="328.846" y="8.461" width="10" height="10"/>
<rect x="368.846" y="18.461" width="10" height="10"/>
<rect x="368.846" y="8.461" width="10" height="10"/>
<rect x="358.846" y="8.461" width="10" height="10"/>
<rect x="348.846" y="8.461" width="10" height="10"/>
<rect x="338.846" y="8.461" width="10" height="10"/>
<rect x="368.846" y="28.461" width="10" height="10"/>
<rect x="148.846" y="28.461" width="10" height="10"/>
<rect x="148.846" y="38.461" width="10" height="10"/>
<rect x="148.846" y="48.461" width="10" height="10"/>
<rect x="148.846" y="58.461" width="10" height="10"/>
<rect x="148.846" y="68.461" width="10" height="10"/>
<rect x="148.846" y="78.461" width="10" height="10"/>
<rect x="148.846" y="88.461" width="10" height="10"/>
<rect x="148.846" y="18.461" width="10" height="10"/>
<rect x="148.846" y="8.461" width="10" height="10"/>
<rect x="188.846" y="28.461" width="10" height="10"/>
<rect x="188.846" y="38.461" width="10" height="10"/>
<rect x="188.846" y="48.461" width="10" height="10"/>
<rect x="188.846" y="58.461" width="10" height="10"/>
<rect x="188.846" y="68.461" width="10" height="10"/>
<rect x="188.846" y="78.461" width="10" height="10"/>
<rect x="188.846" y="88.461" width="10" height="10"/>
<rect x="188.846" y="18.461" width="10" height="10"/>
<rect x="188.846" y="8.461" width="10" height="10"/>
<rect x="178.846" y="88.461" width="10" height="10"/>
<rect x="168.846" y="88.461" width="10" height="10"/>
<rect x="158.846" y="88.461" width="10" height="10"/>
<rect x="268.846" y="28.461" width="10" height="10"/>
<rect x="268.846" y="38.461" width="10" height="10"/>
<rect x="268.846" y="48.461" width="10" height="10"/>
<rect x="268.846" y="58.461" width="10" height="10"/>
<rect x="268.846" y="68.461" width="10" height="10"/>
<rect x="268.846" y="78.461" width="10" height="10"/>
<rect x="268.846" y="88.461" width="10" height="10"/>
<rect x="268.846" y="18.461" width="10" height="10"/>
<rect x="268.846" y="8.461" width="10" height="10"/>
<rect x="308.846" y="28.461" width="10" height="10"/>
<rect x="308.846" y="38.461" width="10" height="10"/>
<rect x="308.846" y="48.461" width="10" height="10"/>
<rect x="308.846" y="58.461" width="10" height="10"/>
<rect x="308.846" y="68.461" width="10" height="10"/>
<rect x="308.846" y="78.461" width="10" height="10"/>
<rect x="308.846" y="88.461" width="10" height="10"/>
<rect x="308.846" y="18.461" width="10" height="10"/>
<rect x="308.846" y="8.461" width="10" height="10"/>
<rect x="298.846" y="88.461" width="10" height="10"/>
<rect x="288.846" y="88.461" width="10" height="10"/>
<rect x="278.846" y="88.461" width="10" height="10"/>
</svg>
